<svg class="animated" id="freepik_stories-hybrid-car" xmlns="http://www.w3.org/2000/svg" viewBox="0 0 750 500" version="1.1" xmlns:xlink="http://www.w3.org/1999/xlink" xmlns:svgjs="http://svgjs.com/svgjs"><style>svg#freepik_stories-hybrid-car:not(.animated) .animable {opacity: 0;}svg#freepik_stories-hybrid-car.animated #freepik--background-complete--inject-139 {animation: 1.5s Infinite  linear shake;animation-delay: 0s;}svg#freepik_stories-hybrid-car.animated #freepik--speech-bubble--inject-139 {animation: 0.9s 1 forwards ease-out slideDown,1.5s Infinite  linear floating;animation-delay: 0s,0.9s;}            @keyframes shake {                10%, 90% {                    transform: translate3d(-1px, 0, 0);                  }                  20%, 80% {                    transform: translate3d(2px, 0, 0);                  }                  30%, 50%, 70% {                    transform: translate3d(-4px, 0, 0);                  }                  40%, 60% {                    transform: translate3d(4px, 0, 0);                  }            }                    @keyframes slideDown {                0% {                    opacity: 0;                    transform: translateY(-30px);                }                100% {                    opacity: 1;                    transform: translateY(0);                }            }                    @keyframes floating {                0% {                    opacity: 1;                    transform: translateY(0px);                }                50% {                    transform: translateY(-10px);                }                100% {                    opacity: 1;                    transform: translateY(0px);                }            }        .animator-hidden { display: none; }</style><g id="freepik--background-complete--inject-139" class="animable animator-hidden" style="transform-origin: 383.188px 242.325px;"><path d="M437,232.28c.54-3.92-5-7.15-9.15-7.48-2-.16-4,.14-5.92-.51-4.07-1.42-5.7-6.68-9.67-8.36-3-1.25-6.38-.13-9.26,1.32s-5.72,3.27-8.94,3.47c-2.8.18-5.83-.85-8.28.51-1.82,1-2.78,3.12-4.46,4.36a10.64,10.64,0,0,1-5.83,1.58,16.42,16.42,0,0,0-6,1c-1.86.85-3.39,2.82-3,4.82Z" style="fill: rgb(245, 245, 245); transform-origin: 401.733px 224.19px;" id="elpz4kptcsbp" class="animable"></path><polygon points="156.64 365.41 138.35 356.5 132.29 329.76 127.18 330.95 131.61 356.21 114.08 346.15 110.24 349.89 133.44 362.42 156.64 371.64 156.64 365.41" style="fill: rgb(235, 235, 235); transform-origin: 133.44px 350.7px;" id="eln1624vfauk9" class="animable"></polygon><polygon points="164.03 439.71 150.63 439.71 154.1 326.41 167.5 326.41 164.03 439.71" style="fill: rgb(235, 235, 235); transform-origin: 159.065px 383.06px;" id="eltbhrrz5jf6a" class="animable"></polygon><path d="M157.14,44.58c0,1.55-36,97.81-36,97.81l18-15.52-25.91,67.27L130.32,174l-20.11,84.35,9.75-8.79L102.89,309l14.63-15.53L102.89,338l115.82-7.24-27.43-83.84,16.57,15.52L186.4,201.39l11,5.17-25-78.66L184,134.63Z" style="fill: rgb(245, 245, 245); transform-origin: 160.8px 191.29px;" id="el1q7nnulv5c2" class="animable"></path><path d="M161,216.39a9.2,9.2,0,0,1-.58,1.43c-.46,1-1.06,2.3-1.81,3.9l-6.48,13.48-.29.59-.36-.57a63.34,63.34,0,0,1-4.72-8.92c-.52-1.19-1-2.39-1.4-3.53l.71,0c-3.2,6.91-6.33,12.94-8.68,17.21-1.18,2.14-2.16,3.85-2.85,5l-.82,1.33a2.11,2.11,0,0,1-.33.45,12.93,12.93,0,0,1,.9-1.88c.66-1.28,1.55-3,2.64-5.08,2.23-4.32,5.27-10.36,8.44-17.28l.39-.85.32.88c.41,1.13.87,2.31,1.39,3.49a67.49,67.49,0,0,0,4.64,8.86l-.64,0c2.7-5.36,5-10,6.73-13.38.83-1.58,1.49-2.86,2-3.84A7.92,7.92,0,0,1,161,216.39Z" style="fill: rgb(235, 235, 235); transform-origin: 147.195px 231.575px;" id="elwv7hrqyo5z" class="animable"></path><path d="M173.37,180.46a4.61,4.61,0,0,1-.66-1c-.44-.78-1-1.76-1.66-2.94-1.44-2.5-3.54-6-6.27-9.89l.66-.08c-.57,1.9-1.2,3.94-1.84,6.05-.41,1.32-.81,2.61-1.2,3.85l-.27.86-.43-.81c-2.47-4.67-4.6-8.78-6.1-11.73l-1.74-3.48a5.12,5.12,0,0,1-.54-1.3,6.92,6.92,0,0,1,.78,1.21c.52.9,1.16,2,1.94,3.4,1.62,2.91,3.84,7,6.34,11.64l-.7.05c.38-1.24.78-2.53,1.18-3.85.66-2.11,1.3-4.15,1.88-6l.23-.72.44.64a96.16,96.16,0,0,1,6.05,10c.67,1.28,1.16,2.31,1.48,3A4.31,4.31,0,0,1,173.37,180.46Z" style="fill: rgb(235, 235, 235); transform-origin: 163.345px 170.225px;" id="el8l0j2cd43h" class="animable"></path><path d="M157,106.72a23.85,23.85,0,0,1-2,3.42c-1.35,2.09-3.28,5-5.51,8.31l-.5.75-.18-.85c-.21-1-.42-1.95-.63-3-.36-1.76-.71-3.44-1-5l.66.11c-2.07,2.78-3.87,5.15-5.17,6.83a19.83,19.83,0,0,1-2.17,2.6,18.29,18.29,0,0,1,1.79-2.8c1.2-1.73,2.91-4.15,4.94-7l.49-.68.17.79,1.06,5c.21,1,.42,2,.62,3l-.69-.11c2.25-3.28,4.26-6.16,5.73-8.2A25.3,25.3,0,0,1,157,106.72Z" style="fill: rgb(235, 235, 235); transform-origin: 148.75px 113.305px;" id="el04g89s83zauy" class="animable"></path><polygon points="597.98 371.81 581.25 363.66 575.7 339.19 571.03 340.28 575.08 363.39 559.04 354.19 555.53 357.61 576.75 369.07 597.98 377.52 597.98 371.81" style="fill: rgb(235, 235, 235); transform-origin: 576.755px 358.355px;" id="elszx3ptoufgm" class="animable"></polygon><polygon points="604.75 439.8 592.49 439.8 595.66 336.12 607.92 336.12 604.75 439.8" style="fill: rgb(235, 235, 235); transform-origin: 600.205px 387.96px;" id="el0o6vbgifc7v" class="animable"></polygon><path d="M598.44,78.23c0,1.42-32.91,89.5-32.91,89.5L582,153.52l-23.71,61.57,15.62-18.47-18.41,77.19,8.93-8.05L548.8,320.22,562.19,306,548.8,346.74l106-6.63-25.1-76.72,15.16,14.21-19.62-55.88,10,4.73-22.87-72,10.6,6.16Z" style="fill: rgb(245, 245, 245); transform-origin: 601.8px 212.485px;" id="ellhdmbzzaiik" class="animable"></path><path d="M602,235.45a7.16,7.16,0,0,1-.53,1.3l-1.65,3.58c-1.51,3.12-3.56,7.38-5.94,12.33l-.26.54-.33-.52a58,58,0,0,1-4.32-8.16c-.48-1.1-.9-2.19-1.28-3.23l.65,0c-2.93,6.33-5.79,11.84-8,15.75-1.07,2-2,3.52-2.61,4.59-.29.48-.54.88-.74,1.22s-.28.41-.3.4a11,11,0,0,1,.82-1.71L580,256.9c2-3.95,4.83-9.48,7.73-15.8l.36-.78.29.8c.37,1,.8,2.11,1.27,3.2a60.34,60.34,0,0,0,4.25,8.1l-.59,0,6.16-12.25c.75-1.44,1.37-2.61,1.83-3.51A7.09,7.09,0,0,1,602,235.45Z" style="fill: rgb(235, 235, 235); transform-origin: 589.345px 249.35px;" id="elkybv15bygi" class="animable"></path><path d="M613.29,202.57a4.6,4.6,0,0,1-.6-.95l-1.52-2.69c-1.31-2.29-3.24-5.48-5.74-9.05l.61-.08-1.69,5.54c-.38,1.21-.74,2.39-1.09,3.52l-.25.79-.39-.74c-2.26-4.27-4.22-8-5.59-10.74-.64-1.27-1.17-2.34-1.59-3.18a5,5,0,0,1-.5-1.19,6.13,6.13,0,0,1,.72,1.1l1.77,3.12c1.49,2.66,3.52,6.39,5.81,10.65l-.64,0c.35-1.13.71-2.31,1.08-3.52l1.72-5.53.2-.66.41.59a89.39,89.39,0,0,1,5.54,9.19c.6,1.17,1.06,2.11,1.35,2.76A3.92,3.92,0,0,1,613.29,202.57Z" style="fill: rgb(235, 235, 235); transform-origin: 604.115px 193.185px;" id="elj6ncg0mpcz" class="animable"></path><path d="M598.28,135.09a23.56,23.56,0,0,1-1.87,3.13c-1.24,1.92-3,4.58-5,7.6l-.46.69-.17-.78c-.18-.87-.38-1.78-.57-2.71-.33-1.6-.65-3.14-.94-4.57l.6.1c-1.89,2.54-3.54,4.72-4.73,6.25a17.86,17.86,0,0,1-2,2.38,17.13,17.13,0,0,1,1.64-2.57c1.1-1.58,2.67-3.79,4.52-6.36l.45-.62.15.72c.31,1.43.64,3,1,4.57.19.93.38,1.83.56,2.71l-.63-.09c2.06-3,3.9-5.64,5.24-7.51A21.9,21.9,0,0,1,598.28,135.09Z" style="fill: rgb(235, 235, 235); transform-origin: 590.71px 141.135px;" id="el3pl3gzoua7g" class="animable"></path><polygon points="267.82 377.65 253.03 370.44 248.12 348.81 243.99 349.77 247.57 370.21 233.39 362.07 230.28 365.09 249.05 375.23 267.82 382.7 267.82 377.65" style="fill: rgb(235, 235, 235); transform-origin: 249.05px 365.755px;" id="elsjl9xf8x1u" class="animable"></polygon><polygon points="273.81 437.77 262.96 437.77 265.77 346.09 276.61 346.09 273.81 437.77" style="fill: rgb(235, 235, 235); transform-origin: 269.785px 391.93px;" id="elx9snwdwzfvb" class="animable"></polygon><path d="M268.23,118c0,1.26-29.1,79.15-29.1,79.15l14.55-12.57-21,54.44,13.81-16.33L230.25,291l7.89-7.12L224.33,332l11.84-12.56-11.84,36,93.72-5.86-22.2-67.84,13.41,12.56-17.35-49.41,8.88,4.18-20.23-63.65,9.38,5.44Z" style="fill: rgb(245, 245, 245); transform-origin: 271.19px 236.72px;" id="el6ovzbk73qhk" class="animable"></path><path d="M271.37,257.07a5.36,5.36,0,0,1-.46,1.15l-1.46,3.16c-1.33,2.76-3.15,6.53-5.25,10.91l-.23.48-.29-.46a52.12,52.12,0,0,1-3.83-7.22c-.42-1-.8-1.94-1.13-2.86l.57,0c-2.58,5.6-5.11,10.47-7,13.93-1,1.73-1.75,3.11-2.31,4.06l-.66,1.07a1.61,1.61,0,0,1-.26.36,9.06,9.06,0,0,1,.72-1.51L251.9,276c1.81-3.49,4.26-8.38,6.83-14l.32-.69.25.71c.33.91.71,1.87,1.13,2.83a53,53,0,0,0,3.76,7.17l-.52,0c2.18-4.35,4.06-8.09,5.45-10.84l1.61-3.1A6.93,6.93,0,0,1,271.37,257.07Z" style="fill: rgb(235, 235, 235); transform-origin: 260.215px 269.36px;" id="elxyv34teusf" class="animable"></path><path d="M281.36,228a4.31,4.31,0,0,1-.53-.84l-1.35-2.38c-1.16-2-2.86-4.85-5.07-8l.54-.07c-.47,1.54-1,3.19-1.5,4.9l-1,3.11-.22.7-.35-.66c-2-3.77-3.73-7.1-4.94-9.49l-1.4-2.81a4.28,4.28,0,0,1-.44-1,5.71,5.71,0,0,1,.63,1l1.57,2.76c1.31,2.35,3.11,5.65,5.13,9.41l-.56,0c.3-1,.62-2,.95-3.11.53-1.71,1.05-3.36,1.52-4.89l.18-.58.36.52a77.75,77.75,0,0,1,4.9,8.12c.54,1,.93,1.87,1.19,2.45A3.54,3.54,0,0,1,281.36,228Z" style="fill: rgb(235, 235, 235); transform-origin: 273.23px 219.73px;" id="elsqjifm1z9h" class="animable"></path><path d="M268.08,168.32a19,19,0,0,1-1.65,2.77c-1.09,1.69-2.65,4-4.45,6.72l-.41.61-.15-.69c-.16-.77-.33-1.58-.51-2.4l-.83-4,.53.09c-1.67,2.25-3.13,4.17-4.18,5.52a15.21,15.21,0,0,1-1.76,2.11,16.55,16.55,0,0,1,1.45-2.27c1-1.4,2.36-3.36,4-5.62l.4-.55.13.63c.27,1.27.56,2.63.87,4,.17.82.33,1.63.49,2.4l-.55-.08c1.82-2.66,3.44-5,4.63-6.64A21.39,21.39,0,0,1,268.08,168.32Z" style="fill: rgb(235, 235, 235); transform-origin: 261.375px 173.685px;" id="elrj8wj6m0l4l" class="animable"></path><polygon points="494.36 381.52 479.95 374.5 475.17 353.42 471.14 354.36 474.63 374.27 460.82 366.34 457.79 369.28 476.08 379.16 494.36 386.43 494.36 381.52" style="fill: rgb(235, 235, 235); transform-origin: 476.075px 369.925px;" id="eluahxdqa8jft" class="animable"></polygon><polygon points="500.19 440.07 489.63 440.07 492.36 350.78 502.92 350.78 500.19 440.07" style="fill: rgb(235, 235, 235); transform-origin: 496.275px 395.425px;" id="el7dpl80mvt59" class="animable"></polygon><path d="M494.76,128.65c0,1.23-28.35,77.09-28.35,77.09l14.17-12.23-20.41,53,13.45-15.91-15.86,66.49,7.69-6.94L452,337.08l11.53-12.24L452,359.92l91.28-5.71-21.62-66.08,13.06,12.24-16.9-48.13,8.65,4.08-19.7-62,9.13,5.3Z" style="fill: rgb(245, 245, 245); transform-origin: 497.64px 244.285px;" id="elsb5wz2wqo8d" class="animable"></path><path d="M497.82,264.07a6.16,6.16,0,0,1-.45,1.12c-.37.79-.84,1.82-1.43,3.08l-5.11,10.62-.22.47-.29-.45a49.94,49.94,0,0,1-3.72-7c-.41-.94-.78-1.88-1.11-2.78l.56,0c-2.52,5.45-5,10.19-6.84,13.56-.93,1.69-1.7,3-2.25,3.95l-.64,1.05c-.15.24-.24.36-.26.35a11,11,0,0,1,.71-1.48c.52-1,1.22-2.36,2.08-4,1.76-3.41,4.15-8.17,6.65-13.62l.31-.67.25.69c.32.89.69,1.82,1.09,2.76a52.4,52.4,0,0,0,3.67,7l-.51,0,5.31-10.56,1.57-3A6.32,6.32,0,0,1,497.82,264.07Z" style="fill: rgb(235, 235, 235); transform-origin: 486.94px 276.055px;" id="elq3gv3nfczg" class="animable"></path><path d="M507.54,235.75a4.57,4.57,0,0,1-.51-.82l-1.31-2.32c-1.13-2-2.79-4.72-4.94-7.8l.52-.06-1.46,4.77c-.32,1-.63,2.06-.94,3l-.21.68-.34-.64c-1.94-3.67-3.63-6.91-4.81-9.24l-1.37-2.75a4.38,4.38,0,0,1-.43-1,5.61,5.61,0,0,1,.62.95c.41.71.92,1.61,1.53,2.69,1.27,2.29,3,5.5,5,9.17l-.55,0,.93-3c.51-1.66,1-3.27,1.48-4.76l.17-.57.35.51a76.75,76.75,0,0,1,4.77,7.91c.53,1,.91,1.82,1.17,2.38A3.38,3.38,0,0,1,507.54,235.75Z" style="fill: rgb(235, 235, 235); transform-origin: 499.64px 227.66px;" id="elbkkzravwg6c" class="animable"></path><path d="M494.61,177.63a17.44,17.44,0,0,1-1.61,2.69c-1.06,1.65-2.58,4-4.33,6.55l-.4.6-.15-.68c-.16-.75-.32-1.53-.49-2.33-.29-1.38-.56-2.71-.81-3.94l.52.08c-1.63,2.2-3,4.07-4.08,5.39a14.65,14.65,0,0,1-1.71,2,15,15,0,0,1,1.41-2.21c1-1.36,2.3-3.27,3.9-5.48l.38-.54.14.62c.26,1.23.54,2.56.84,3.94.16.8.32,1.58.48,2.33l-.54-.08c1.77-2.59,3.36-4.85,4.51-6.46A19.16,19.16,0,0,1,494.61,177.63Z" style="fill: rgb(235, 235, 235); transform-origin: 488.08px 182.81px;" id="elfiqg80oho" class="animable"></path><polygon points="685.81 378.83 672.44 372.31 668.01 352.77 664.28 353.64 667.51 372.1 654.7 364.75 651.9 367.48 668.85 376.64 685.81 383.38 685.81 378.83" style="fill: rgb(235, 235, 235); transform-origin: 668.855px 368.075px;" id="elm1g3xhl3eih" class="animable"></polygon><polygon points="691.22 433.13 681.42 433.13 683.96 350.32 693.75 350.32 691.22 433.13" style="fill: rgb(235, 235, 235); transform-origin: 687.585px 391.725px;" id="el4b5tl76byfr" class="animable"></polygon><path d="M686.18,144.31c0,1.14-26.29,71.5-26.29,71.5L673,204.46,654.1,253.63l12.47-14.75-14.7,61.66,7.13-6.43-12.48,43.5,10.7-11.34-10.7,32.53,84.66-5.3-20-61.28,12.11,11.35-15.67-44.64,8,3.78-18.27-57.5,8.47,4.92Z" style="fill: rgb(245, 245, 245); transform-origin: 688.85px 251.555px;" id="el461h1kvqtso" class="animable"></path><path d="M689,269.9a5.42,5.42,0,0,1-.42,1l-1.32,2.85-4.74,9.86-.21.43-.26-.41a46.59,46.59,0,0,1-3.46-6.53c-.38-.87-.72-1.74-1-2.58l.52,0c-2.34,5.06-4.63,9.46-6.35,12.59-.86,1.56-1.58,2.8-2.08,3.66-.24.38-.44.7-.6,1a1.37,1.37,0,0,1-.24.33,8.43,8.43,0,0,1,.66-1.38c.48-.93,1.13-2.19,1.93-3.71,1.63-3.16,3.85-7.58,6.17-12.63l.28-.62.23.64c.3.82.64,1.69,1,2.55a48.59,48.59,0,0,0,3.4,6.48l-.48,0,4.93-9.79,1.46-2.81A5.48,5.48,0,0,1,689,269.9Z" style="fill: rgb(235, 235, 235); transform-origin: 678.92px 281px;" id="eltdpxgr1jcc" class="animable"></path><path d="M698,243.63a3.31,3.31,0,0,1-.48-.75c-.32-.58-.73-1.3-1.22-2.15-1-1.83-2.58-4.38-4.58-7.24l.49-.05c-.43,1.38-.88,2.87-1.35,4.42l-.88,2.81-.19.63-.32-.59c-1.8-3.41-3.36-6.42-4.46-8.57l-1.27-2.55a3.93,3.93,0,0,1-.4-1,5,5,0,0,1,.58.88l1.41,2.49c1.19,2.13,2.81,5.11,4.64,8.51l-.51,0,.86-2.82c.48-1.54.95-3,1.38-4.42l.16-.52.32.47a70.48,70.48,0,0,1,4.43,7.34c.48.93.84,1.68,1.08,2.21A3.16,3.16,0,0,1,698,243.63Z" style="fill: rgb(235, 235, 235); transform-origin: 690.67px 236.11px;" id="elo8eh39mhoo" class="animable"></path><path d="M686.05,189.73a18.46,18.46,0,0,1-1.5,2.5c-1,1.53-2.39,3.66-4,6.08l-.37.55-.13-.63c-.15-.7-.3-1.42-.46-2.16-.27-1.28-.52-2.52-.75-3.66l.48.08c-1.51,2-2.83,3.77-3.78,5a13.46,13.46,0,0,1-1.59,1.9,13.61,13.61,0,0,1,1.31-2c.88-1.27,2.13-3,3.61-5.08l.36-.5.12.58c.25,1.14.51,2.36.78,3.64.16.75.31,1.47.45,2.17l-.5-.07c1.65-2.41,3.11-4.51,4.18-6A18.19,18.19,0,0,1,686.05,189.73Z" style="fill: rgb(235, 235, 235); transform-origin: 680px 194.56px;" id="elbib31ha0d6f" class="animable"></path><path d="M284.31,77.53c.54-3.92-5-7.14-9.15-7.48-2-.16-4,.14-5.92-.51-4.07-1.42-5.7-6.68-9.67-8.35-3-1.25-6.39-.14-9.26,1.31s-5.73,3.27-8.94,3.48c-2.8.18-5.84-.86-8.28.51-1.83,1-2.78,3.11-4.46,4.35a10.58,10.58,0,0,1-5.83,1.58,16.64,16.64,0,0,0-6,1c-1.86.85-3.4,2.81-3,4.82Z" style="fill: rgb(235, 235, 235); transform-origin: 249.041px 69.4438px;" id="el7wcdl5vxbnm" class="animable"></path><path d="M714.21,86.32c.54-3.92-5-7.14-9.16-7.48-2-.16-4,.15-5.92-.51-4.07-1.42-5.69-6.68-9.66-8.35-3-1.25-6.39-.14-9.27,1.31s-5.72,3.27-8.94,3.48c-2.79.18-5.83-.86-8.28.51-1.82,1-2.78,3.12-4.46,4.36s-3.79,1.46-5.83,1.58a16.33,16.33,0,0,0-6,1c-1.86.85-3.4,2.81-3,4.82Z" style="fill: rgb(235, 235, 235); transform-origin: 678.936px 78.2388px;" id="el7hduftqd5je" class="animable"></path><path d="M105.77,149.23c.54-3.92-5-7.15-9.16-7.48-2-.16-4,.14-5.92-.51-4.07-1.42-5.69-6.68-9.66-8.35-3-1.26-6.39-.14-9.27,1.31s-5.72,3.27-8.93,3.47c-2.8.18-5.84-.85-8.29.51-1.82,1-2.77,3.12-4.46,4.36a10.61,10.61,0,0,1-5.82,1.58,16.39,16.39,0,0,0-6,1c-1.86.85-3.4,2.82-3,4.82Z" style="fill: rgb(245, 245, 245); transform-origin: 70.5014px 141.142px;" id="elnuumj9lggvj" class="animable"></path><path d="M480.55,114.21c.64-4.66-5.95-8.5-10.9-8.9-2.36-.19-4.81.17-7-.61-4.85-1.69-6.78-8-11.51-9.94-3.53-1.49-7.6-.17-11,1.56s-6.81,3.89-10.64,4.14c-3.33.21-6.94-1-9.85.6-2.18,1.21-3.31,3.72-5.31,5.19s-4.51,1.75-6.94,1.88-4.94.16-7.16,1.17-4,3.35-3.58,5.74Z" style="fill: rgb(245, 245, 245); transform-origin: 438.596px 104.576px;" id="elrjsnesb4tcs" class="animable"></path></g><g id="freepik--Floor--inject-139" class="animable" style="transform-origin: 373px 436.31px;"><path d="M736.52,436.31c0,.15-162.76.26-363.5.26s-363.54-.11-363.54-.26,162.73-.26,363.54-.26S736.52,436.17,736.52,436.31Z" style="fill: rgb(38, 50, 56); transform-origin: 373px 436.31px;" id="ele0oyj5xeut8" class="animable"></path></g><g id="freepik--arrow-2--inject-139" class="animable animator-hidden" style="transform-origin: 575.455px 257.099px;"><polygon points="477.47 234.43 466.67 268.01 501.56 270.86 477.47 234.43" style="fill: rgb(224, 224, 224); transform-origin: 484.115px 252.645px;" id="elqxemu00qa5" class="animable"></polygon><path d="M670.09,290.3c-19.62-24.09-52.18-41.59-87.11-46.83-32.84-4.92-71.3,3.7-98,22l-10.32-15.09c30.3-20.72,73.88-30.51,111-24.94,39.89,6,75.82,25.43,98.58,53.36Z" style="fill: rgb(224, 224, 224); transform-origin: 579.45px 257.099px;" id="elyjtzkto372k" class="animable"></path></g><g id="freepik--arrow-1--inject-139" class="animable animator-hidden" style="transform-origin: 181.815px 247.501px;"><polygon points="275.54 225.58 286.34 259.16 251.45 262.01 275.54 225.58" style="fill: rgb(224, 224, 224); transform-origin: 268.895px 243.795px;" id="el5pixp78ectk" class="animable"></polygon><path d="M91.47,280,77.29,268.45c24.33-29.86,52.94-46.35,90-51.91s80.74,4.22,111,24.94L268,256.57c-26.69-18.26-65.16-26.87-98-21.95S113,253.53,91.47,280Z" style="fill: rgb(224, 224, 224); transform-origin: 177.79px 247.501px;" id="elb7lu2smyuvm" class="animable"></path></g><g id="freepik--electric-station--inject-139" class="animable animator-hidden" style="transform-origin: 691.995px 343.229px;"><path d="M707.89,268.89l6.78.4a18.11,18.11,0,0,1,5,.77l.05,0a7.76,7.76,0,0,1,4.36,4.9L728,286.26a2,2,0,0,1-1.13,2.51l-3.15,1.3a2,2,0,0,1-2.67-1.21l-2.46-7.27a.87.87,0,0,0-.82-.57l-10.32-.52A16,16,0,0,1,707.89,268.89Z" style="fill: rgb(69, 90, 100); transform-origin: 717.34px 279.558px;" id="elx92c3bzw1p9" class="animable"></path><g id="elc7v6ctmqezg"><path d="M659.35,249.78H712.4a0,0,0,0,1,0,0V426.56a6.87,6.87,0,0,1-6.87,6.87H666.22a6.87,6.87,0,0,1-6.87-6.87V249.78A0,0,0,0,1,659.35,249.78Z" style="fill: rgb(224, 224, 224); transform-origin: 685.875px 341.605px; transform: rotate(180deg);" class="animable"></path></g><path d="M659.37,257.33l0,22.37h53l.34-22.65c0-5.33-4.29-7.64-9.62-7.64L669,249.25C663.23,249.2,659.35,250.72,659.37,257.33Z" style="fill: rgb(69, 90, 100); transform-origin: 686.04px 264.474px;" id="el00o0x64s0mmvg" class="animable"></path><g id="elyyt8s094r6"><rect x="672.4" y="268.2" width="26.95" height="57.05" rx="1.66" style="fill: rgb(38, 50, 56); transform-origin: 685.875px 296.725px; transform: rotate(180deg);" class="animable"></rect></g><g id="elj22m5ftra4q"><rect x="647.35" y="429.64" width="78.04" height="7.57" style="fill: rgb(38, 50, 56); transform-origin: 686.37px 433.425px; transform: rotate(180deg);" class="animable"></rect></g><path d="M711.88,302.07V318l8.33-5.12v-5.13h-.69a8,8,0,0,1-6.58-3.3A6.37,6.37,0,0,1,711.88,302.07Z" style="fill: rgb(224, 224, 224); transform-origin: 716.045px 310.035px;" id="el7x0qh7tvsnv" class="animable"></path><path d="M725.82,395.76a8.66,8.66,0,0,0,4.06-1c4.3-2.24,6.76-7.72,6.76-15v-.15a179.41,179.41,0,0,0-3.71-23.78c-1.43-6.92-1.06-14.25-2.74-27-.8-6.08-2.89-40.2-2.88-40.32l-3.63,1.59c0,.53,2.18,32.77,3,39.19,1.7,12.85,1.34,20.25,2.78,27.23a175.09,175.09,0,0,1,3.64,23.29c0,5.84-1.84,10.27-4.88,11.86a5.76,5.76,0,0,1-6.16-.68c-4-2.82-7.72-10.54-6-23.77,4.11-18.3,6.63-32.32,6.51-45.63-.34-24.75-3.74-30.68-4.12-31.27l-3,1.91s3.24,5.76,3.56,29.39c.11,13-2.38,26.82-6.45,44.91l0,.16c-1.63,12.6,1.16,22.76,7.48,27.18A10.1,10.1,0,0,0,725.82,395.76Z" style="fill: rgb(38, 50, 56); transform-origin: 724.372px 342.135px;" id="el13n3otbiuxtg" class="animable"></path><path d="M712.4,282.73v9.7a5.11,5.11,0,0,0,1.57.25,5,5,0,0,0,1.51-.23,5.1,5.1,0,0,0,0-9.74,5.35,5.35,0,0,0-1.51-.22A5.42,5.42,0,0,0,712.4,282.73Z" style="fill: rgb(38, 50, 56); transform-origin: 715.733px 287.585px;" id="elxj5pwhikduh" class="animable"></path><polygon points="686.84 345.98 676.87 365.16 686.61 365.16 681.72 378.7 693.87 359.75 684.28 359.75 686.84 345.98" style="fill: rgb(69, 90, 100); transform-origin: 685.37px 362.34px;" id="elw3fxcq9kypb" class="animable"></polygon><path d="M692.92,317.12h-13.1a1,1,0,0,1-.93-1V282.74a1,1,0,0,1,.93-1h2.53l-.08-2.63a1,1,0,0,1,.93-1h6.34a1,1,0,0,1,.92,1v2.63a0,0,0,0,0,0,0l2.45,0a1,1,0,0,1,.92,1v33.39A1,1,0,0,1,692.92,317.12Zm-13.1-34.37.07,33.38h13l-.08-33.38h-2.45a1,1,0,0,1-.93-1v-2.63H683.2l.07,2.62a1,1,0,0,1-.92,1Z" style="fill: rgb(69, 90, 100); transform-origin: 686.36px 297.615px;" id="elk0uds4myni" class="animable"></path><rect x="681.27" y="284.13" width="10.2" height="2.51" rx="0.59" style="fill: rgb(69, 90, 100); transform-origin: 686.37px 285.385px;" id="elbkkqyr1s9u" class="animable"></rect><rect x="681.27" y="287.59" width="10.2" height="2.51" rx="0.59" style="fill: rgb(69, 90, 100); transform-origin: 686.37px 288.845px;" id="ely1bmbpdqoci" class="animable"></rect><rect x="681.27" y="291.04" width="10.2" height="2.51" rx="0.59" style="fill: rgb(69, 90, 100); transform-origin: 686.37px 292.295px;" id="el7pcwjg955v3" class="animable"></rect><rect x="681.27" y="294.5" width="10.2" height="2.51" rx="0.59" style="fill: rgb(69, 90, 100); transform-origin: 686.37px 295.755px;" id="el160xe1ip8sbh" class="animable"></rect><rect x="681.27" y="297.95" width="10.2" height="2.51" rx="0.59" style="fill: rgb(69, 90, 100); transform-origin: 686.37px 299.205px;" id="elyqmc0w4yegr" class="animable"></rect><rect x="681.27" y="301.41" width="10.2" height="2.51" rx="0.59" style="fill: rgb(69, 90, 100); transform-origin: 686.37px 302.665px;" id="el0j3gpl5mrbe" class="animable"></rect><rect x="681.27" y="304.86" width="10.2" height="2.51" rx="0.59" style="fill: rgb(69, 90, 100); transform-origin: 686.37px 306.115px;" id="el3wz1uo5i7en" class="animable"></rect><rect x="681.27" y="308.33" width="10.2" height="2.51" rx="0.59" style="fill: rgb(69, 90, 100); transform-origin: 686.37px 309.585px;" id="elwl1wvura2sh" class="animable"></rect><rect x="681.27" y="311.84" width="10.2" height="2.51" rx="0.59" style="fill: rgb(69, 90, 100); transform-origin: 686.37px 313.095px;" id="el9vktpdbf1pa" class="animable"></rect><path d="M659.35,432.07s0-.39,0-1.18,0-2,0-3.5c0-3.1,0-7.65,0-13.51,0-11.77,0-28.78-.08-49.79s-.05-46.1-.08-73.92q0-10.44,0-21.37v-11a10.92,10.92,0,0,1,.22-2.83,7.13,7.13,0,0,1,6.22-5.37c7.61-.07,15.27,0,23.09,0h14.78c1,0,2-.05,3,.06a7.14,7.14,0,0,1,6.22,6.52c.05,1.17,0,2.27,0,3.41v46c0,17,0,33.19,0,48.45,0,30.53,0,57.2-.07,78.1v.17h-.17l-39.12-.09-10.38,0-2.66,0-.89,0h.92l2.69,0,10.42,0,39-.09-.16.16c0-20.9,0-47.57-.07-78.1,0-15.26,0-31.49,0-48.45q0-12.7,0-25.94V259.51c0-1.12,0-2.28,0-3.37a6.58,6.58,0,0,0-5.76-6c-.94-.11-2,0-3-.06H688.63c-7.8,0-15.53,0-23,0a6.59,6.59,0,0,0-5.78,5,10.53,10.53,0,0,0-.21,2.71v11q0,10.91,0,21.33c0,27.78-.06,52.8-.08,73.82s-.06,38.05-.08,49.82c0,5.89,0,10.46,0,13.58,0,1.54,0,2.73,0,3.53S659.35,432.07,659.35,432.07Z" style="fill: rgb(38, 50, 56); transform-origin: 685.958px 340.939px;" id="ell701cd3bx5m" class="animable"></path></g><g id="freepik--gas-station--inject-139" class="animable animator-hidden" style="transform-origin: 74.515px 342.609px;"><path d="M44.28,282.27s4.92-14,10.36-19.54v5.74s-6.23,10.65-7.19,16.67Z" style="fill: rgb(38, 50, 56); transform-origin: 49.46px 273.935px;" id="elb1x6z6s119k" class="animable"></path><path d="M61,249.25H99.63a6.87,6.87,0,0,1,6.87,6.87V432.58a0,0,0,0,1,0,0H54.12a0,0,0,0,1,0,0V256.12A6.87,6.87,0,0,1,61,249.25Z" style="fill: rgb(224, 224, 224); transform-origin: 80.31px 340.915px;" id="elym3vb1fow3" class="animable"></path><path d="M99.75,249.25H60.87A6.75,6.75,0,0,0,54.12,256v22.78h52.37V256A6.75,6.75,0,0,0,99.75,249.25Z" style="fill: rgb(243, 129, 2); transform-origin: 80.305px 264.015px;" id="elh5dedqfblw" class="animable"></path><rect x="67.01" y="267.43" width="26.61" height="56.32" rx="1.5" style="fill: rgb(38, 50, 56); transform-origin: 80.315px 295.59px;" id="eldbuzl810219" class="animable"></rect><rect x="41.79" y="428.84" width="77.03" height="7.47" style="fill: rgb(38, 50, 56); transform-origin: 80.305px 432.575px;" id="elw5tzsgd5z7f" class="animable"></rect><path d="M54.12,281.78v9.57a5.11,5.11,0,0,1-3,0,5,5,0,0,1,0-9.61,5.11,5.11,0,0,1,3,0Z" style="fill: rgb(38, 50, 56); transform-origin: 50.8114px 286.545px;" id="eloktsldmp4rn" class="animable"></path><path d="M54.64,300.87v15.69l-8.22-5.06v-5.06h.68a7.91,7.91,0,0,0,6.5-3.26A6.4,6.4,0,0,0,54.64,300.87Z" style="fill: rgb(224, 224, 224); transform-origin: 50.53px 308.715px;" id="el89xmawq5kg" class="animable"></path><polygon points="45.04 287.3 43.91 290.68 46.95 291.54 46.25 295.44 41.83 295.44 41.83 303.85 43.83 304.81 43.83 308.11 37.24 308.11 37.24 297.29 35.94 295.27 35.94 291.54 38.88 291.54 43.83 280.88 48.65 284.37 48.17 287.64 45.04 287.3" style="fill: rgb(224, 224, 224); transform-origin: 42.295px 294.495px;" id="elyh12mj4yyyg" class="animable"></polygon><path d="M40.88,393.35a8.71,8.71,0,0,1-4-1c-4.24-2.22-6.67-7.63-6.67-14.85v-.15a177.63,177.63,0,0,1,3.66-23.48c1.41-6.83,3-14.57,4.67-27.13.8-6,0-18.35,0-18.47l3.46-.23c0,.52.83,12.81,0,19.15-1.67,12.69-3.29,20.5-4.71,27.38a174.72,174.72,0,0,0-3.6,23c0,5.76,1.82,10.14,4.82,11.7a5.69,5.69,0,0,0,6.09-.67c4-2.78,7.62-10.4,5.94-23.46-4.06-18.06-6.55-31.91-6.43-45,.33-24.43,3.69-30.28,4.07-30.86l2.9,1.89s-3.19,5.68-3.51,29c-.11,12.82,2.36,26.47,6.37,44.33l0,.16c1.61,12.43-1.15,22.46-7.39,26.82A9.89,9.89,0,0,1,40.88,393.35Z" style="fill: rgb(38, 50, 56); transform-origin: 42.3003px 341.315px;" id="elv4r08w04y0m" class="animable"></path><path d="M86.29,358h0l-.07-.16a6.62,6.62,0,0,0-.81-1.67l-4.11-8.43a1.14,1.14,0,0,0-2,0l-4.66,9.41h0a6.29,6.29,0,1,0,11.66.85Z" style="fill: rgb(243, 129, 2); transform-origin: 80.3011px 356.664px;" id="elwzsjzed5mrm" class="animable"></path><rect x="73.35" y="278.65" width="13.92" height="2.23" rx="0.81" style="fill: rgb(69, 90, 100); transform-origin: 80.31px 279.765px;" id="el5pgwd4zzr15" class="animable"></rect><rect x="73.35" y="282.85" width="5.13" height="2.23" rx="0.81" style="fill: rgb(69, 90, 100); transform-origin: 75.915px 283.965px;" id="el93oqahjjqxj" class="animable"></rect><path d="M76.92,312.94a2.09,2.09,0,1,1-2.08-2.09A2.08,2.08,0,0,1,76.92,312.94Z" style="fill: rgb(243, 129, 2); transform-origin: 74.83px 312.94px;" id="elnh0p5ex9hjh" class="animable"></path><path d="M87.9,312.94a2.09,2.09,0,1,1-2.08-2.09A2.08,2.08,0,0,1,87.9,312.94Z" style="fill: rgb(69, 90, 100); transform-origin: 85.81px 312.94px;" id="el8ke7k60tkef" class="animable"></path><path d="M53.86,428.84s0-.39,0-1.16,0-1.95,0-3.46c0-3.05,0-7.54,0-13.32,0-11.6-.05-28.36-.08-49.07s-.05-45.45-.08-72.88q0-10.27,0-21.06V257a9.86,9.86,0,0,1,.24-2.79A7.12,7.12,0,0,1,60,248.94c7.5-.07,15.06,0,22.77,0H97.36a27.22,27.22,0,0,1,3,.08,7.11,7.11,0,0,1,6.12,6.45c.06,1.16,0,2.24,0,3.36v19.78q0,13,0,25.56c0,16.71,0,32.7,0,47.74,0,30.08,0,56.36-.07,77V429h-.16l-38.62-.09-10.24,0-2.63,0-.88,0h.91l2.66,0,10.28,0,38.52-.09-.17.16c0-20.61,0-46.89-.07-77,0-15,0-31,0-47.74q0-12.53,0-25.56V258.79c0-1.1,0-2.24,0-3.31a6.49,6.49,0,0,0-1-3,6.59,6.59,0,0,0-4.64-3c-.93-.11-1.93-.05-2.91-.07H82.8c-7.69,0-15.32,0-22.72,0A6.61,6.61,0,0,0,55.51,252a6.74,6.74,0,0,0-1.17,2.37,9.77,9.77,0,0,0-.23,2.66v10.86q0,10.75,0,21c0,27.38-.06,52.05-.08,72.76s-.06,37.51-.08,49.12c0,5.8,0,10.31,0,13.38,0,1.53,0,2.69,0,3.49S53.86,428.84,53.86,428.84Z" style="fill: rgb(38, 50, 56); transform-origin: 80.0954px 338.954px;" id="ela5whm45v15p" class="animable"></path></g><g id="freepik--speech-bubble--inject-139" class="animable animator-active" style="transform-origin: 382.103px 187.742px;"><path d="M353,153.29a41.28,41.28,0,0,0,21,69.84h0L381.6,234l7.25-10.62a41.08,41.08,0,0,0,20.91-10.09,41.3,41.3,0,1,0-56.74-60Z" style="fill: rgb(255, 255, 255); transform-origin: 382.051px 187.681px;" id="el209sc5vijl8" class="animable"></path><path d="M353,153.29s.16-.17.5-.48l1.52-1.39,1.12-1c.43-.35.94-.7,1.47-1.09l1.72-1.25a23.11,23.11,0,0,1,2.07-1.26A38.81,38.81,0,0,1,373,142.24a41.17,41.17,0,0,1,16.46-.38A40.36,40.36,0,0,1,407.64,150l2.13,1.72,2,1.95,1,1c.32.34.6.72.91,1.09l1.82,2.22a41.78,41.78,0,0,1,6.59,35.59,39.87,39.87,0,0,1-5.55,12.25l-.94,1.43-1.08,1.35a28.22,28.22,0,0,1-2.27,2.62c-.82.82-1.63,1.66-2.48,2.46s-1.77,1.52-2.72,2.22a41.34,41.34,0,0,1-18.14,7.76l.17-.11-7.25,10.62a.25.25,0,0,1-.35.06s0,0-.07-.06l-7.58-10.86a.25.25,0,0,1,.06-.35.25.25,0,0,1,.12,0h0l0,.48a41.4,41.4,0,0,1-17.11-7.73A41.42,41.42,0,0,1,341,188.17a42.72,42.72,0,0,1,.34-13,40.7,40.7,0,0,1,7.29-16.87l1.75-2.25,1.43-1.51.87-.92.31-.3s-.09.12-.28.33l-.84.94-1.39,1.54-1.72,2.27a44.15,44.15,0,0,0-4,6.77,43.43,43.43,0,0,0-3.15,10.05,42.52,42.52,0,0,0-.28,12.93,41,41,0,0,0,15.76,27.15,40.67,40.67,0,0,0,16.93,7.62.25.25,0,0,1,.19.29.25.25,0,0,1-.22.2h0l.19-.39,7.6,10.86h-.42c2.37-3.46,4.79-7,7.25-10.62a.28.28,0,0,1,.17-.11,40.72,40.72,0,0,0,17.91-7.67c.93-.69,1.82-1.43,2.68-2.19s1.64-1.62,2.45-2.43a25.06,25.06,0,0,0,2.24-2.59l1.07-1.32.93-1.42a39.28,39.28,0,0,0,5.49-12.1,41.21,41.21,0,0,0-1-24.83,43.85,43.85,0,0,0-5.48-10.35l-1.8-2.2c-.3-.36-.58-.74-.89-1.08l-1-1-1.95-2-2.1-1.7a40.12,40.12,0,0,0-18-8.09,41.19,41.19,0,0,0-16.33.3A39,39,0,0,0,361.53,147a22,22,0,0,0-2.08,1.24c-.62.43-1.2.84-1.73,1.23s-1,.72-1.48,1.06l-1.13,1-1.55,1.34Z" style="fill: rgb(38, 50, 56); transform-origin: 382.103px 187.742px;" id="el1zd1kgza0tr" class="animable"></path><polygon points="361.33 184.21 367.14 178.4 378.36 188.36 400.36 167.19 405.76 173 377.52 199.58 361.33 184.21" style="fill: rgb(243, 129, 2); transform-origin: 383.545px 183.385px;" id="elfugojtsnf8" class="animable"></polygon></g><g id="freepik--Car--inject-139" class="animable" style="transform-origin: 385.835px 349.228px;"><rect x="154.53" y="345.97" width="447.66" height="58.68" style="fill: rgb(243, 129, 2); transform-origin: 378.36px 375.31px;" id="el85vdtbh2uuj" class="animable"></rect><g id="el0zgj3bo1xmvq"><g style="opacity: 0.4; transform-origin: 378.36px 375.31px;" class="animable"><rect x="154.53" y="345.97" width="447.66" height="58.68" id="eld9xsozwws46" class="animable" style="transform-origin: 378.36px 375.31px;"></rect></g></g><path d="M628,342.49C615.3,334.9,582.29,323,573.13,322c-5.55-.61-30.25-3.89-30.25-3.89l-8-.62s-85.11-40.7-98.65-45.75c-21-7.82-65.27-14.62-112.25-9,0,0-62.78,5.54-76.73,9.44s-81.45,24.21-81.45,24.21-29.59,3-29.13,4.1a9,9,0,0,0,2.87,4.11V322.8s-3.28,4.3-4.1,6.36-2.67,18.25-2.67,18.25-8.84,20.31-8.84,25.65,16,25.85,19.92,28.93,35.38,7.56,35.38,7.56l0-15.36c.83-23.39,19.7-42.09,42.87-42.09s42.05,18.7,42.88,42.09l.09,19.9H510.61l-.17-14.77c-.09-1.17-.15-2.34-.15-3.53,0-24.13,19.21-43.69,42.91-43.69s42.92,19.56,42.92,43.69c0,1.19-.06,2.36-.15,3.53h.87v14.77h28.31s23-17,22.36-25.64V364.18a12.72,12.72,0,0,0-3.41-8.69A73.87,73.87,0,0,0,628,342.49Z" style="fill: rgb(243, 129, 2); transform-origin: 385.727px 337.382px;" id="elra1q08bslbk" class="animable"></path><g id="elgqxmi9ovnp"><g style="opacity: 0.2; transform-origin: 385.727px 377.531px;" class="animable"><path d="M647.51,371.21l-18.12-6.46-2.15,9.85-28.93-1.54s-12.74-24.32-38.78-26.46c-22.29-1.84-40,9.25-40,9.25L392.12,343.21s-64.62-2.46-89.55-2.15-46.9,18.42-46.9,18.42-7.35-10.67-33.42-10.91-36.95,15.06-36.95,15.06a107.08,107.08,0,0,1-50.81-21l-1.28,1c-.26,2.18-.44,3.72-.44,3.72s-8.84,20.31-8.84,25.65,16,25.85,19.92,28.93,35.38,7.56,35.38,7.56l0-15.36c.83-23.39,19.7-42.09,42.87-42.09s42.05,18.7,42.88,42.09l.09,19.9H510.61l-.17-14.77c-.09-1.17-.15-2.34-.15-3.53,0-24.13,19.21-43.69,42.91-43.69s42.92,19.56,42.92,43.69c0,1.19-.06,2.36-.15,3.53h.87v14.77h28.31s23-17,22.36-25.64V371.21Z" id="el6jtdm93mpd6" class="animable" style="transform-origin: 385.727px 377.531px;"></path></g></g><path d="M210.52,297.66a3,3,0,0,0,1.34,5.36l21.59,2.88,122.66,13.52,149.55,8.3a6.86,6.86,0,0,0,6.12-2.9c1.27-1.9,1.75-4.56-1.39-7.57-6.27-6-34-21.63-40.56-24.7a226,226,0,0,0-120.54-26.76c-20.67.71-60.33,6.62-111.59,13.33a6.87,6.87,0,0,0-3,1.2Z" style="fill: rgb(38, 50, 56); transform-origin: 361.041px 296.573px;" id="elzqp54uebgj" class="animable"></path><path d="M236,303.69c.3-.92,11.34-21.77,13.49-23s91.39-12.57,92.62-11S346.43,315,346.43,315Z" style="fill: rgb(69, 90, 100); transform-origin: 291.215px 292.271px;" id="elu4azrjjzvf" class="animable"></path><polygon points="270.03 277.5 269.26 308.11 273.86 308.11 273.86 276.99 270.03 277.5" style="fill: rgb(38, 50, 56); transform-origin: 271.56px 292.55px;" id="elhpcowitvcfp" class="animable"></polygon><path d="M484.5,300.48s.08.15.22.46.36.78.63,1.39.65,1.37,1,2.29l1.25,3.21a108.57,108.57,0,0,1,5.24,21.9,176.8,176.8,0,0,1,1.09,34.9c-.4,6.73-1.14,13.88-2.27,21.35-.58,3.73-1.24,7.55-2.08,11.43a18.5,18.5,0,0,1-.79,2.91,21.16,21.16,0,0,1-1.4,2.72,58.52,58.52,0,0,1-3.45,5.1l-.07.09h-.12l-101.37-1.85-55.33-1.27c-8.79-.17-17.35-.34-25.61-.4-1,0-2.06,0-3.08,0s-2,0-3.08,0a15.51,15.51,0,0,1-5.84-1.65,20.53,20.53,0,0,1-4.86-3.44,24.16,24.16,0,0,1-3.77-4.45h0c-9.45-13-18-25-25.45-35.75-3.72-5.38-7.19-10.41-10.32-15.13s-6-9.06-8.39-13.09a54.15,54.15,0,0,1-3.17-5.87l-.6-1.43c-.2-.47-.3-1-.46-1.43s-.3-.93-.38-1.39-.18-.93-.26-1.38a19.94,19.94,0,0,1,.61-9.2,20.22,20.22,0,0,1,2.42-5.21,11.8,11.8,0,0,1,1.2-1.57l-.31.4c-.19.26-.48.67-.83,1.21a20.55,20.55,0,0,0-2.34,5.21,19.75,19.75,0,0,0-.55,9.13l.26,1.36c.09.46.27.91.4,1.38s.26.95.45,1.41l.6,1.42a57.63,57.63,0,0,0,3.18,5.82c2.42,4,5.28,8.36,8.43,13.06s6.64,9.72,10.37,15.09c7.49,10.7,16,22.7,25.5,35.7h0a22.84,22.84,0,0,0,8.45,7.71,15.32,15.32,0,0,0,5.68,1.6c1,.05,2,.05,3,0s2.06,0,3.09,0c8.27,0,16.82.22,25.62.38l55.33,1.25,101.37,1.91-.18.09c1.23-1.64,2.39-3.33,3.43-5.05a23,23,0,0,0,1.37-2.65,17.85,17.85,0,0,0,.77-2.85c.84-3.86,1.51-7.67,2.09-11.4,1.15-7.45,1.9-14.58,2.31-21.3a177.86,177.86,0,0,0-1-34.84,111,111,0,0,0-5.1-21.89l-1.22-3.22c-.35-.93-.72-1.68-1-2.3l-.6-1.4C484.55,300.64,484.5,300.48,484.5,300.48Z" style="fill: rgb(38, 50, 56); transform-origin: 362.919px 354.355px;" id="el7pa3142s2w3" class="animable"></path><path d="M358,319.52a5.89,5.89,0,0,1,.25.87c.14.57.32,1.43.5,2.54.36,2.21.74,5.44,1,9.45.53,8,.32,19.1.16,31.33s-.46,23.31-.69,31.33c-.13,4-.23,7.2-.3,9.49-.05,1.08-.08,1.94-.11,2.57l0,.68a.74.74,0,0,1,0,.22.94.94,0,0,1,0-.23c0-.18,0-.4,0-.67,0-.63,0-1.49,0-2.58,0-2.29.08-5.52.13-9.49.14-8.06.33-19.11.54-31.33s.43-23.3,0-31.3c-.2-4-.52-7.22-.82-9.44-.15-1.11-.3-2-.4-2.55l-.12-.66A.66.66,0,0,1,358,319.52Z" style="fill: rgb(38, 50, 56); transform-origin: 359.045px 363.76px;" id="elij3j2mr53pl" class="animable"></path><path d="M359,268.79,368.15,315,465.73,322l15-20.38s-37.81-21.51-71-28C376,267,359,268.79,359,268.79Z" style="fill: rgb(69, 90, 100); transform-origin: 419.865px 295.285px;" id="eluklc934pax" class="animable"></path><g id="elmdg0huvq3xj"><g style="opacity: 0.2; transform-origin: 381.515px 387.3px;" class="animable"><path d="M282.26,375.65s45.59,19.16,53.88,21S478,399.46,478,399.46l2.77-6-139.41-.93S285.34,371.65,282.26,375.65Z" id="elv3x14x0q5z" class="animable" style="transform-origin: 381.515px 387.3px;"></path></g></g><path d="M255.67,359.48l-.24-.22c-.15-.15-.39-.36-.7-.64a30.79,30.79,0,0,0-2.93-2.18,42.82,42.82,0,0,0-5.09-2.76,54.86,54.86,0,0,0-7.22-2.56,64.63,64.63,0,0,0-9.11-1.76c-1.65-.25-3.38-.32-5.16-.47-.88-.07-1.79,0-2.7-.07s-1.84-.06-2.78,0A56.93,56.93,0,0,0,196.33,355a48.83,48.83,0,0,0-9.05,5.81l-.22.18-.16-.22c-4.35-6-8.39-11.68-11.9-16.9s-6.47-10-8.88-13.95-4.29-7.23-5.58-9.46l-1.45-2.57-.37-.67a1,1,0,0,1-.11-.23s.06.06.15.21l.41.64c.36.61.88,1.45,1.53,2.53l5.7,9.37c2.45,4,5.44,8.7,9,13.88S183,354.5,187.31,360.5l-.37-.05a50,50,0,0,1,9.16-5.89,56.88,56.88,0,0,1,23.62-6.19,26.36,26.36,0,0,1,2.81,0c.92,0,1.83,0,2.72.07,1.78.16,3.52.24,5.18.5a63.6,63.6,0,0,1,9.16,1.84,51.51,51.51,0,0,1,7.24,2.65,41.05,41.05,0,0,1,5.08,2.85,27.7,27.7,0,0,1,2.89,2.27c.3.3.53.52.67.69A1,1,0,0,1,255.67,359.48Z" style="fill: rgb(38, 50, 56); transform-origin: 207.14px 338.99px;" id="el93s3j0dn4m" class="animable"></path><path d="M139,383.86a8.17,8.17,0,0,1-.38-1.46c-.21-.95-.48-2.33-.81-4-.64-3.41-1.45-8.13-2.22-13.37s-1.36-10-1.72-13.44c-.19-1.72-.32-3.12-.39-4.09a7.1,7.1,0,0,1-.06-1.5,9.68,9.68,0,0,1,.26,1.48c.14,1.06.33,2.42.55,4.07.46,3.43,1.11,8.18,1.88,13.41s1.51,10,2.07,13.38c.26,1.63.48,3,.64,4.05A9,9,0,0,1,139,383.86Z" style="fill: rgb(38, 50, 56); transform-origin: 136.202px 364.93px;" id="el5jpinzcst5n" class="animable"></path><path d="M180.09,387.3a1.93,1.93,0,0,1-.52,0h-1.5c-1.3,0-3.19,0-5.51-.12-4.66-.16-11.08-.52-18.16-1.22s-13.45-1.61-18-2.37c-2.3-.38-4.15-.71-5.43-1l-1.47-.3a3.19,3.19,0,0,1-.5-.14,1.71,1.71,0,0,1,.52,0l1.49.21,5.45.81c4.6.66,11,1.51,18,2.21s13.48,1.12,18.12,1.37l5.5.28,1.5.09A2,2,0,0,1,180.09,387.3Z" style="fill: rgb(38, 50, 56); transform-origin: 154.545px 384.724px;" id="elwii4uxon91" class="animable"></path><path d="M629.39,364.75s-5.64-13.06-5.48-13.5c.87-2.34,4.11-8.76,4.11-8.76a65.32,65.32,0,0,1,5.87,3.77,74.62,74.62,0,0,1,10.92,9.51,10.42,10.42,0,0,1,2.7,7v10.94Z" style="fill: rgb(235, 235, 235); transform-origin: 635.708px 358.1px;" id="el1v5ubztoqvx" class="animable"></path><path d="M506.61,304.24a29.56,29.56,0,0,1-2.62,3.52,28.23,28.23,0,0,1-2.71,3.45,13.59,13.59,0,0,1,2.3-3.76A13.44,13.44,0,0,1,506.61,304.24Z" style="fill: rgb(38, 50, 56); transform-origin: 503.945px 307.725px;" id="el4hbmeh4szv7" class="animable"></path><path d="M139.54,304.54s42.75,3.5,42.28,4.44-42.28,13.82-42.28,13.82Z" style="fill: rgb(235, 235, 235); transform-origin: 160.682px 313.67px;" id="el0fsybciz46up" class="animable"></path><path d="M139.41,323.32a85.41,85.41,0,0,1-.26-9.35,86.94,86.94,0,0,1,.25-9.35,80.86,80.86,0,0,1,.27,9.35A85.41,85.41,0,0,1,139.41,323.32Z" style="fill: rgb(38, 50, 56); transform-origin: 139.411px 313.97px;" id="eldauispawsu4" class="animable"></path><path d="M598.31,373.06l-.23-.36c-.15-.25-.36-.62-.66-1.08-.58-1-1.52-2.32-2.8-4.05a61.26,61.26,0,0,0-5.17-6,52.8,52.8,0,0,0-8.13-6.86,44.83,44.83,0,0,0-11.71-5.86,50.84,50.84,0,0,0-15.16-2.32,67.85,67.85,0,0,0-17.3,1.85,54,54,0,0,0-8.93,2.9,40.67,40.67,0,0,0-8.54,4.73l-.09.06h-.09l-65.06-6.43-60.46-6-1.73-.18-1.73-.09-3.43-.16-6.72-.3-12.86-.46c-8.3-.25-16-.41-23.09-.51-14.11-.21-25.54-.23-33.44-.27l-9.09-.05-2.37,0-.8,0,.8,0,2.37,0,9.09,0c7.9,0,19.33-.06,33.45.1,7.06.08,14.79.21,23.1.45q6.23.18,12.86.43l6.72.29,3.44.16,1.73.09,1.74.17,60.46,6,65.07,6.48-.17.05a40.93,40.93,0,0,1,8.66-4.78,55.42,55.42,0,0,1,9-2.91,68.7,68.7,0,0,1,17.41-1.82,51.23,51.23,0,0,1,15.27,2.39,45,45,0,0,1,11.76,6,52,52,0,0,1,8.13,6.93,61,61,0,0,1,5.13,6.05c1.27,1.75,2.18,3.13,2.75,4.1S598.31,373.06,598.31,373.06Z" style="fill: rgb(38, 50, 56); transform-origin: 448.515px 357.335px;" id="elmnfgqf5r6sb" class="animable"></path><path d="M478,399.46h-2l-5.74-.07-21.11-.34-69.63-1.31L341.17,397l-2.2,0a18,18,0,0,1-2.19-.11,17,17,0,0,1-4.08-1.33c-2.58-1.05-5.11-2-7.55-3-4.89-1.87-9.48-3.56-13.66-5.1-8.36-3.07-15.12-5.6-19.75-7.46-2.32-.92-4.11-1.65-5.31-2.17-.59-.25-1.05-.44-1.37-.59l-.47-.21.49.17,1.39.54,5.34,2.08c4.65,1.79,11.43,4.27,19.81,7.29,4.19,1.52,8.78,3.19,13.68,5,2.45.94,5,1.91,7.58,3a16.26,16.26,0,0,0,4,1.3,18.72,18.72,0,0,0,2.14.1l2.2,0,38.34.74,69.63,1.47,21.11.51,5.73.16,1.5.06A3.89,3.89,0,0,1,478,399.46Z" style="fill: rgb(38, 50, 56); transform-origin: 381.295px 388.245px;" id="elx0egxqyn99" class="animable"></path><path d="M466.71,301.26c-1.84,3.77-3.86,9.35-3.48,15.13a7.19,7.19,0,0,0,7.12,6.74l17.57.13a5.19,5.19,0,0,0,5.27-4.37,4.64,4.64,0,0,0-.44-2.67c-1.83-3.72-3.35-3-3.35-3s-5.32-11-13.41-15.15A6.92,6.92,0,0,0,466.71,301.26Z" style="fill: rgb(243, 129, 2); transform-origin: 478.207px 310.311px;" id="elu3maohp284g" class="animable"></path><path d="M484.9,323.24c0,.07.7-.12,1.6-.77a6.54,6.54,0,0,0,2.55-3.46,15.11,15.11,0,0,0,.36-4.25,4.9,4.9,0,0,0-.16-1.75,5.31,5.31,0,0,0-.27,1.74,23.26,23.26,0,0,1-.51,4.09,7.12,7.12,0,0,1-2.24,3.29C485.44,322.83,484.86,323.16,484.9,323.24Z" style="fill: rgb(38, 50, 56); transform-origin: 487.166px 318.132px;" id="elb9anx1of5b5" class="animable"></path><path d="M486.23,310.88a7.52,7.52,0,0,0-1-2.27,21.57,21.57,0,0,0-3.63-4.77,21.82,21.82,0,0,0-4.79-3.59,7.29,7.29,0,0,0-2.28-1c-.1.17,3.39,1.72,6.64,5S486.06,311,486.23,310.88Z" style="fill: rgb(255, 255, 255); transform-origin: 480.379px 305.067px;" id="elwtswyn8z1v" class="animable"></path><path d="M350.57,265.72a2.09,2.09,0,0,1,.15.54c.09.41.2.92.33,1.55.27,1.35.64,3.3,1.07,5.72.87,4.84,2,11.54,3.12,19s1.94,14.18,2.37,19.08c.12,1.22.2,2.33.25,3.31s.12,1.82.13,2.51,0,1.16,0,1.58a3.33,3.33,0,0,1,0,.55,1.9,1.9,0,0,1-.08-.55c0-.42-.07-.94-.12-1.57s-.12-1.53-.21-2.5-.18-2.08-.32-3.3c-.53-4.88-1.43-11.61-2.53-19s-2.19-14.12-3-19c-.38-2.37-.69-4.32-.91-5.75-.09-.63-.17-1.15-.23-1.56A2.87,2.87,0,0,1,350.57,265.72Z" style="fill: rgb(69, 90, 100); transform-origin: 354.282px 292.64px;" id="ell2znh0f5whq" class="animable"></path><g id="el8uj2977omyw"><g style="opacity: 0.2; transform-origin: 160.68px 314.62px;" class="animable"><path d="M139.54,322.8l21.14-12.54.61-3.82c8.21.82,18.17,1.59,20.53,2.54C181.82,309.62,155.82,317.86,139.54,322.8Z" id="eliklzkb4i93d" class="animable" style="transform-origin: 160.68px 314.62px;"></path></g></g><g id="elrngv7bi6ozr"><g style="opacity: 0.2; transform-origin: 635.71px 362.485px;" class="animable"><path d="M623.91,351.25l11.3,9.59,12.3,1.94v10.94l-18.13-9C627.16,359.55,625.12,354.68,623.91,351.25Z" id="elf5krx3nih7w" class="animable" style="transform-origin: 635.71px 362.485px;"></path></g></g><path d="M623.79,351.25a.91.91,0,0,1-.29-.1l-.82-.33-3.13-1.34L608,344.56c-4.86-2.06-10.66-4.51-17.16-7.07-3.26-1.25-6.68-2.6-10.31-3.64-1.82-.46-3.73-.74-5.67-1.07l-5.89-.94c-16-2.43-30.41-4.49-40.87-6L515.76,324l-3.37-.52-.87-.15a.94.94,0,0,1-.3-.07l.31,0,.88.1,3.37.42,12.41,1.66c10.48,1.44,24.94,3.43,40.9,5.87l5.9.93c1.93.34,3.85.62,5.71,1.09,3.69,1.07,7.09,2.43,10.36,3.69,6.49,2.59,12.28,5.07,17.13,7.18s8.75,3.85,11.44,5.07l3.09,1.43.8.38A1.41,1.41,0,0,1,623.79,351.25Z" style="fill: rgb(38, 50, 56); transform-origin: 567.505px 337.255px;" id="elom5oblht2o" class="animable"></path><g id="elem5cew0zpiu"><circle cx="221.81" cy="397.3" r="39.99" style="fill: rgb(38, 50, 56); transform-origin: 221.81px 397.3px; transform: rotate(-0.6deg);" class="animable"></circle></g><path d="M181.83,396.62v.11a40,40,0,0,0,80,1.15v-.1Z" style="fill: rgb(38, 50, 56); transform-origin: 221.828px 416.965px;" id="eld9c01s3hyz" class="animable"></path><path d="M193.74,396.9a28.08,28.08,0,1,0,28.48-27.67A28.08,28.08,0,0,0,193.74,396.9Z" style="fill: rgb(250, 250, 250); transform-origin: 221.817px 397.307px;" id="elunzcwee13pa" class="animable"></path><path d="M222.22,369.23a28.07,28.07,0,0,0-28.48,27.67l56.15.81A28.08,28.08,0,0,0,222.22,369.23Z" style="fill: rgb(224, 224, 224); transform-origin: 221.816px 383.469px;" id="elm3vl6cshol" class="animable"></path><path d="M204.71,397.06a17.11,17.11,0,1,0,17.35-16.86A17.12,17.12,0,0,0,204.71,397.06Z" style="fill: rgb(38, 50, 56); transform-origin: 221.818px 397.308px;" id="el6yb56dff44" class="animable"></path><g id="elx0rji8s2jp"><circle cx="552.78" cy="397.3" r="39.99" style="fill: rgb(38, 50, 56); transform-origin: 552.78px 397.3px; transform: rotate(-0.71deg);" class="animable"></circle></g><path d="M512.8,396.62a.41.41,0,0,0,0,.11,40,40,0,0,0,80,1.15v-.1Z" style="fill: rgb(38, 50, 56); transform-origin: 552.798px 416.965px;" id="elozfmm05i8qa" class="animable"></path><path d="M524.7,396.9a28.08,28.08,0,1,0,28.48-27.67A28.09,28.09,0,0,0,524.7,396.9Z" style="fill: rgb(250, 250, 250); transform-origin: 552.777px 397.307px;" id="elujwyh9dwst" class="animable"></path><path d="M553.18,369.23A28.08,28.08,0,0,0,524.7,396.9l56.15.81A28.07,28.07,0,0,0,553.18,369.23Z" style="fill: rgb(224, 224, 224); transform-origin: 552.777px 383.469px;" id="elzie86kjqrn" class="animable"></path><path d="M535.68,397.06A17.1,17.1,0,1,0,553,380.2,17.1,17.1,0,0,0,535.68,397.06Z" style="fill: rgb(38, 50, 56); transform-origin: 552.778px 397.299px;" id="el8ul3wopczpp" class="animable"></path><path d="M401.74,307.28c-.06-.13,7.35-4,16.55-8.65s16.72-8.32,16.78-8.19-7.34,4-16.54,8.65S401.81,307.41,401.74,307.28Z" style="fill: rgb(255, 255, 255); transform-origin: 418.405px 298.86px;" id="elkmbfxhj682n" class="animable"></path><path d="M391.43,306.26c-.07-.12,7-3.95,15.71-8.55s15.89-8.22,16-8.1-7,4-15.72,8.56S391.49,306.39,391.43,306.26Z" style="fill: rgb(255, 255, 255); transform-origin: 407.285px 297.935px;" id="el2grlatorlz" class="animable"></path><path d="M288.32,304.55a10.81,10.81,0,0,1,1.45-.65l4-1.59L307,297l13.13-5.41,4-1.64a9.15,9.15,0,0,1,1.48-.55,8,8,0,0,1-1.4.73c-.92.44-2.26,1.05-3.92,1.8-3.32,1.48-7.93,3.46-13.08,5.55s-9.84,3.88-13.25,5.13c-1.71.63-3.1,1.12-4.06,1.44A9.36,9.36,0,0,1,288.32,304.55Z" style="fill: rgb(255, 255, 255); transform-origin: 306.965px 296.975px;" id="ely7bp5eo56ji" class="animable"></path><path d="M297.85,293.58a88,88,0,0,1,8.56-4.13,86.34,86.34,0,0,1,8.78-3.65,86.64,86.64,0,0,1-8.56,4.13A89.2,89.2,0,0,1,297.85,293.58Z" style="fill: rgb(255, 255, 255); transform-origin: 306.52px 289.69px;" id="eljbliuxtoecc" class="animable"></path><path d="M647.52,373.72a8.64,8.64,0,0,1-.1-1.58c0-1.1,0-2.55-.09-4.29s0-4-.11-6.34-1.94-4.48-3.64-6.6a36.74,36.74,0,0,0-5.66-5.26c-1.88-1.47-3.63-2.73-5.11-3.78l-3.52-2.45a9.59,9.59,0,0,1-1.27-.93,8.89,8.89,0,0,1,1.38.76c.87.53,2.11,1.31,3.62,2.32s3.29,2.24,5.19,3.7a34.44,34.44,0,0,1,5.77,5.31,29.3,29.3,0,0,1,2.41,3.28,8,8,0,0,1,1.31,3.6c.09,2.44,0,4.57,0,6.39s-.06,3.19-.08,4.29A8.64,8.64,0,0,1,647.52,373.72Z" style="fill: rgb(38, 50, 56); transform-origin: 637.88px 358.105px;" id="el56ykcx6wiq" class="animable"></path></g><defs>     <filter id="active" height="200%">         <feMorphology in="SourceAlpha" result="DILATED" operator="dilate" radius="2"></feMorphology>                <feFlood flood-color="#32DFEC" flood-opacity="1" result="PINK"></feFlood>        <feComposite in="PINK" in2="DILATED" operator="in" result="OUTLINE"></feComposite>        <feMerge>            <feMergeNode in="OUTLINE"></feMergeNode>            <feMergeNode in="SourceGraphic"></feMergeNode>        </feMerge>    </filter>    <filter id="hover" height="200%">        <feMorphology in="SourceAlpha" result="DILATED" operator="dilate" radius="2"></feMorphology>                <feFlood flood-color="#ff0000" flood-opacity="0.5" result="PINK"></feFlood>        <feComposite in="PINK" in2="DILATED" operator="in" result="OUTLINE"></feComposite>        <feMerge>            <feMergeNode in="OUTLINE"></feMergeNode>            <feMergeNode in="SourceGraphic"></feMergeNode>        </feMerge>            <feColorMatrix type="matrix" values="0   0   0   0   0                0   1   0   0   0                0   0   0   0   0                0   0   0   1   0 "></feColorMatrix>    </filter></defs></svg>