<svg xmlns="http://www.w3.org/2000/svg" viewBox="0 0 750 500"><g id="freepik--background-complete--inject-111"><path d="M551.58,104.21c7.38,0,131.64.81,139.45.56.56,0,.86-.84.3-1.11-4.92-2.44-10.5-2-15.62-3.68-3-1-4.86-3-7-5.24a14.43,14.43,0,0,0-6.46-4.22,13.67,13.67,0,0,0-7-.22c-2.52.6-4.71,2-7.12,3-6,2.25-11.77.11-16-4.31-3.51-3.64-7-7.07-11.75-9a15.59,15.59,0,0,0-12.45-.18c-4.55,2.07-7.68,6.22-12,8.72-5.08,3-11.15,2.26-16.75,3.16s-9.91,5.61-14.82,8.33a10.49,10.49,0,0,1-5.36,1.66,33,33,0,0,1-3.27-.46c-1.69-.21-3.3-.16-4.43,1.25C551,102.75,551.1,104.21,551.58,104.21Z" style="fill:#ebebeb"></path><path d="M304.68,193.5c7.39,0,131.64.82,139.45.57.56,0,.86-.84.3-1.12-4.92-2.44-10.5-1.95-15.62-3.67-3-1-4.86-3-6.94-5.24a14.35,14.35,0,0,0-6.47-4.22,13.56,13.56,0,0,0-7-.22c-2.52.6-4.71,2-7.12,3-6,2.25-11.77.11-16-4.31-3.51-3.64-7-7.07-11.75-9A15.56,15.56,0,0,0,361,169c-4.56,2.06-7.69,6.21-12,8.71-5.07,3-11.14,2.27-16.75,3.16s-9.91,5.62-14.82,8.33a10.49,10.49,0,0,1-5.36,1.66,30.26,30.26,0,0,1-3.27-.46c-1.69-.21-3.29-.16-4.43,1.25C304.14,192,304.2,193.5,304.68,193.5Z" style="fill:#ebebeb"></path><path d="M215.85,105.64c5.4,0,96.11.59,101.81.41a.45.45,0,0,0,.23-.82c-3.6-1.77-7.67-1.42-11.41-2.68-2.2-.74-3.55-2.17-5.07-3.82a10.48,10.48,0,0,0-4.72-3.08,9.85,9.85,0,0,0-5.14-.16c-1.84.43-3.44,1.49-5.2,2.15-4.35,1.65-8.59.08-11.7-3.14-2.57-2.66-5.09-5.17-8.58-6.6a11.36,11.36,0,0,0-9.09-.12c-3.32,1.5-5.61,4.54-8.73,6.36-3.71,2.17-8.14,1.65-12.23,2.31s-7.24,4.1-10.82,6.08a7.65,7.65,0,0,1-3.92,1.21,23.89,23.89,0,0,1-2.38-.33,3.25,3.25,0,0,0-3.24.91C215.46,104.57,215.5,105.64,215.85,105.64Z" style="fill:#ebebeb"></path><path d="M407.47,59.76c5.39,0,96.11.6,101.81.42.41,0,.63-.62.23-.82-3.6-1.78-7.68-1.42-11.41-2.68-2.2-.74-3.55-2.18-5.07-3.83a10.65,10.65,0,0,0-4.72-3.08,10.07,10.07,0,0,0-5.14-.16c-1.84.44-3.44,1.49-5.2,2.16-4.36,1.64-8.59.08-11.7-3.14-2.57-2.66-5.09-5.17-8.58-6.6a11.4,11.4,0,0,0-9.09-.13c-3.32,1.51-5.61,4.54-8.73,6.37-3.71,2.16-8.14,1.65-12.23,2.3s-7.24,4.1-10.82,6.09a7.75,7.75,0,0,1-3.92,1.21,23.92,23.92,0,0,1-2.38-.34c-1.24-.15-2.41-.12-3.24.91C407.08,58.7,407.12,59.76,407.47,59.76Z" style="fill:#ebebeb"></path><path d="M465.57,152c.14.39,187.54,0,185.18,0-1.08,0,1.63-1.62.58-2.14-6.1-3-12.77-3.11-19.42-3.72-3.87-.35-7.86-.92-11.34-2.75s-5.74-5.06-8.24-8a35.21,35.21,0,0,0-32-12.12c-13.32,2.08-23.83,12.24-37.17,14.1-8,1.13-15.61-2-23.44-3.07-6.46-.9-11.83.36-17.6,3.22-4.23,2.09-8.14,3.86-12.91,4.19-3.67.26-7.36-.16-11-.2A24.7,24.7,0,0,0,461.93,148C461.34,148.52,459.45,152,465.57,152Z" style="fill:#ebebeb"></path><path d="M62.75,178.13c.14.4,187.55,0,185.18,0-1.08,0,1.64-1.62.58-2.14-6.1-3-12.77-3.11-19.41-3.72-3.88-.35-7.86-.92-11.35-2.75s-5.73-5.06-8.24-8a35.23,35.23,0,0,0-32-12.12c-13.33,2.08-23.83,12.24-37.18,14.1-8,1.13-15.6-2-23.44-3.07-6.45-.9-11.83.36-17.6,3.22-4.23,2.09-8.13,3.86-12.91,4.19-3.67.26-7.36-.16-11-.2a24.62,24.62,0,0,0-16.23,6.49C58.52,174.62,56.63,178.13,62.75,178.13Z" style="fill:#ebebeb"></path><path d="M515.73,303.62S396.82,297,332.2,280.72c-53.65-13.53-102.63-39.87-126.69-39.87C153,240.85,58,303.62,58,303.62H404.23" style="fill:#dbdbdb"></path><path d="M691.63,303.62s-106.49-37.13-137.82-37.13c-23.23,0-202.77,37.13-202.77,37.13Z" style="fill:#ebebeb"></path><polygon points="328.83 213.35 328.83 303.62 511.1 303.62 511.1 230.06 495.29 230.06 495.29 249.27 491.22 249.27 491.22 215.71 471.11 215.71 471.11 247.56 468.45 247.56 468.45 207.16 450.98 207.16 450.98 218.25 442.02 218.25 442.02 232.05 439.3 232.05 439.3 223.37 423.42 223.37 423.42 249.26 418.77 249.26 418.77 228.22 404.24 228.22 404.24 212.22 394.36 212.22 394.36 203.12 382.93 203.12 382.93 243.51 379.09 243.51 379.09 226.65 360.26 226.65 360.26 250.78 357.66 250.78 357.66 231.09 338.57 231.09 338.57 213.35 328.83 213.35" style="fill:#ebebeb"></polygon><rect x="506.49" y="232.48" width="2.68" height="3.67" transform="translate(1015.66 468.63) rotate(180)" style="fill:#fff"></rect><rect x="501.85" y="232.48" width="2.68" height="3.67" transform="translate(1006.38 468.63) rotate(180)" style="fill:#fff"></rect><rect x="497.22" y="232.48" width="2.68" height="3.67" transform="translate(997.11 468.63) rotate(180)" style="fill:#fff"></rect><rect x="506.49" y="238.01" width="2.68" height="3.67" transform="translate(1015.66 479.68) rotate(180)" style="fill:#fff"></rect><rect x="501.85" y="238.01" width="2.68" height="3.67" transform="translate(1006.38 479.68) rotate(180)" style="fill:#fff"></rect><rect x="497.22" y="238.01" width="2.68" height="3.67" transform="translate(997.11 479.68) rotate(180)" style="fill:#fff"></rect><rect x="506.49" y="243.53" width="2.68" height="3.67" transform="translate(1015.66 490.73) rotate(180)" style="fill:#fff"></rect><rect x="501.85" y="243.53" width="2.68" height="3.67" transform="translate(1006.38 490.73) rotate(180)" style="fill:#fff"></rect><rect x="497.22" y="243.53" width="2.68" height="3.67" transform="translate(997.11 490.73) rotate(180)" style="fill:#fff"></rect><rect x="506.49" y="249.05" width="2.68" height="3.67" transform="translate(1015.66 501.78) rotate(180)" style="fill:#fff"></rect><rect x="501.85" y="249.05" width="2.68" height="3.67" transform="translate(1006.38 501.78) rotate(180)" style="fill:#fff"></rect><rect x="497.22" y="249.05" width="2.68" height="3.67" transform="translate(997.11 501.78) rotate(180)" style="fill:#fff"></rect><rect x="413.86" y="230.84" width="2.68" height="3.06" transform="translate(830.4 464.74) rotate(180)" style="fill:#fff"></rect><rect x="409.23" y="230.84" width="2.68" height="3.06" transform="translate(821.13 464.74) rotate(180)" style="fill:#fff"></rect><rect x="404.59" y="230.84" width="2.68" height="3.06" transform="translate(811.85 464.74) rotate(180)" style="fill:#fff"></rect><rect x="413.86" y="235.45" width="2.68" height="3.06" transform="translate(830.4 473.95) rotate(180)" style="fill:#fff"></rect><rect x="409.23" y="235.45" width="2.68" height="3.06" transform="translate(821.13 473.95) rotate(180)" style="fill:#fff"></rect><rect x="404.59" y="235.45" width="2.68" height="3.06" transform="translate(811.85 473.95) rotate(180)" style="fill:#fff"></rect><rect x="413.86" y="240.05" width="2.68" height="3.06" transform="translate(830.4 483.17) rotate(180)" style="fill:#fff"></rect><rect x="409.23" y="240.05" width="2.68" height="3.06" transform="translate(821.13 483.17) rotate(180)" style="fill:#fff"></rect><rect x="404.59" y="240.05" width="2.68" height="3.06" transform="translate(811.85 483.17) rotate(180)" style="fill:#fff"></rect><rect x="413.86" y="244.66" width="2.68" height="3.06" transform="translate(830.4 492.39) rotate(180)" style="fill:#fff"></rect><rect x="409.23" y="244.66" width="2.68" height="3.06" transform="translate(821.13 492.39) rotate(180)" style="fill:#fff"></rect><rect x="404.59" y="244.66" width="2.68" height="3.06" transform="translate(811.85 492.39) rotate(180)" style="fill:#fff"></rect><rect x="413.86" y="249.39" width="2.68" height="3.06" transform="translate(830.4 501.83) rotate(180)" style="fill:#fff"></rect><rect x="409.23" y="249.39" width="2.68" height="3.06" transform="translate(821.13 501.83) rotate(180)" style="fill:#fff"></rect><rect x="404.59" y="249.39" width="2.68" height="3.06" transform="translate(811.85 501.83) rotate(180)" style="fill:#fff"></rect><rect x="413.86" y="254.11" width="2.68" height="3.06" transform="translate(830.4 511.28) rotate(180)" style="fill:#fff"></rect><rect x="409.23" y="254.11" width="2.68" height="3.06" transform="translate(821.13 511.28) rotate(180)" style="fill:#fff"></rect><rect x="404.59" y="254.11" width="2.68" height="3.06" transform="translate(811.85 511.28) rotate(180)" style="fill:#fff"></rect><rect x="413.86" y="258.83" width="2.68" height="3.06" transform="translate(830.4 520.73) rotate(180)" style="fill:#fff"></rect><rect x="409.23" y="258.83" width="2.68" height="3.06" transform="translate(821.13 520.73) rotate(180)" style="fill:#fff"></rect><rect x="404.59" y="258.83" width="2.68" height="3.06" transform="translate(811.85 520.73) rotate(180)" style="fill:#fff"></rect><rect x="413.86" y="263.55" width="2.68" height="3.06" transform="translate(830.4 530.17) rotate(180)" style="fill:#fff"></rect><rect x="409.23" y="263.55" width="2.68" height="3.06" transform="translate(821.13 530.17) rotate(180)" style="fill:#fff"></rect><rect x="404.59" y="263.55" width="2.68" height="3.06" transform="translate(811.85 530.17) rotate(180)" style="fill:#fff"></rect><rect x="473.54" y="218.06" width="15.4" height="2.3" transform="translate(962.47 438.42) rotate(180)" style="fill:#fff"></rect><rect x="473.54" y="222.52" width="15.4" height="2.3" transform="translate(962.47 447.33) rotate(180)" style="fill:#fff"></rect><rect x="473.54" y="226.97" width="15.4" height="2.3" transform="translate(962.47 456.24) rotate(180)" style="fill:#fff"></rect><rect x="473.54" y="231.43" width="15.4" height="2.3" transform="translate(962.47 465.15) rotate(180)" style="fill:#fff"></rect><rect x="473.54" y="235.88" width="15.4" height="2.3" transform="translate(962.47 474.06) rotate(180)" style="fill:#fff"></rect><rect x="473.54" y="240.34" width="15.4" height="2.3" transform="translate(962.47 482.97) rotate(180)" style="fill:#fff"></rect><rect x="473.54" y="244.79" width="15.4" height="2.3" transform="translate(962.47 491.88) rotate(180)" style="fill:#fff"></rect><rect x="473.54" y="249.25" width="15.4" height="2.3" transform="translate(962.47 500.79) rotate(180)" style="fill:#fff"></rect><rect x="362.65" y="228.79" width="14.16" height="2.3" transform="translate(739.46 459.88) rotate(180)" style="fill:#fff"></rect><rect x="362.65" y="233.25" width="14.16" height="2.3" transform="translate(739.46 468.79) rotate(180)" style="fill:#fff"></rect><rect x="362.65" y="237.7" width="14.16" height="2.3" transform="translate(739.46 477.71) rotate(180)" style="fill:#fff"></rect><rect x="362.65" y="242.16" width="14.16" height="2.3" transform="translate(739.46 486.62) rotate(180)" style="fill:#fff"></rect><rect x="362.65" y="246.62" width="14.16" height="2.3" transform="translate(739.46 495.53) rotate(180)" style="fill:#fff"></rect><rect x="362.65" y="251.07" width="14.16" height="2.3" transform="translate(739.46 504.44) rotate(180)" style="fill:#fff"></rect><rect x="362.65" y="255.53" width="14.16" height="2.3" transform="translate(739.46 513.35) rotate(180)" style="fill:#fff"></rect><rect x="362.65" y="259.98" width="14.16" height="2.3" transform="translate(739.46 522.26) rotate(180)" style="fill:#fff"></rect><rect x="362.65" y="264.21" width="14.16" height="2.3" transform="translate(739.46 530.73) rotate(180)" style="fill:#fff"></rect><rect x="362.65" y="268.45" width="14.16" height="2.3" transform="translate(739.46 539.19) rotate(180)" style="fill:#fff"></rect><rect x="362.65" y="272.68" width="14.16" height="2.3" transform="translate(739.46 547.66) rotate(180)" style="fill:#fff"></rect><rect x="362.65" y="276.92" width="14.16" height="2.3" transform="translate(739.46 556.13) rotate(180)" style="fill:#fff"></rect><rect x="362.65" y="281.15" width="14.16" height="2.3" transform="translate(739.46 564.59) rotate(180)" style="fill:#fff"></rect><rect x="339.76" y="234.18" width="14.96" height="2.3" transform="translate(694.47 470.65) rotate(180)" style="fill:#fff"></rect><rect x="339.76" y="238.63" width="14.96" height="2.3" transform="translate(694.47 479.56) rotate(180)" style="fill:#fff"></rect><rect x="339.76" y="243.09" width="14.96" height="2.3" transform="translate(694.47 488.47) rotate(180)" style="fill:#fff"></rect><rect x="339.76" y="247.54" width="14.96" height="2.3" transform="translate(694.47 497.38) rotate(180)" style="fill:#fff"></rect><rect x="339.76" y="252" width="14.96" height="2.3" transform="translate(694.47 506.29) rotate(180)" style="fill:#fff"></rect><rect x="339.76" y="256.45" width="14.96" height="2.3" transform="translate(694.47 515.2) rotate(180)" style="fill:#fff"></rect><rect x="339.76" y="260.91" width="14.96" height="2.3" transform="translate(694.47 524.11) rotate(180)" style="fill:#fff"></rect><rect x="339.76" y="265.36" width="14.96" height="2.3" transform="translate(694.47 533.02) rotate(180)" style="fill:#fff"></rect><rect x="339.76" y="269.35" width="14.96" height="2.3" transform="translate(694.47 541) rotate(180)" style="fill:#fff"></rect><rect x="339.76" y="273.34" width="14.96" height="2.3" transform="translate(694.47 548.97) rotate(180)" style="fill:#fff"></rect><rect x="339.76" y="277.33" width="14.96" height="2.3" transform="translate(694.47 556.95) rotate(180)" style="fill:#fff"></rect><rect x="429.9" y="225.45" width="4.76" height="2.22" transform="translate(864.56 453.12) rotate(180)" style="fill:#fff"></rect><rect x="429.9" y="229.75" width="4.76" height="2.22" transform="translate(864.56 461.72) rotate(180)" style="fill:#fff"></rect><rect x="429.9" y="234.05" width="4.76" height="2.22" transform="translate(864.56 470.33) rotate(180)" style="fill:#fff"></rect><rect x="429.9" y="238.36" width="4.76" height="2.22" transform="translate(864.56 478.93) rotate(180)" style="fill:#fff"></rect><rect x="429.9" y="242.66" width="4.76" height="2.22" transform="translate(864.56 487.54) rotate(180)" style="fill:#fff"></rect><rect x="429.9" y="246.96" width="4.76" height="2.22" transform="translate(864.56 496.14) rotate(180)" style="fill:#fff"></rect><rect x="429.9" y="251.26" width="4.76" height="2.22" transform="translate(864.56 504.75) rotate(180)" style="fill:#fff"></rect><rect x="429.9" y="255.57" width="4.76" height="2.22" transform="translate(864.56 513.35) rotate(180)" style="fill:#fff"></rect><rect x="423.43" y="225.45" width="4.76" height="2.22" transform="translate(851.61 453.12) rotate(180)" style="fill:#fff"></rect><rect x="423.43" y="229.75" width="4.76" height="2.22" transform="translate(851.61 461.72) rotate(180)" style="fill:#fff"></rect><rect x="423.43" y="234.05" width="4.76" height="2.22" transform="translate(851.61 470.33) rotate(180)" style="fill:#fff"></rect><rect x="423.43" y="238.36" width="4.76" height="2.22" transform="translate(851.61 478.93) rotate(180)" style="fill:#fff"></rect><rect x="423.43" y="242.66" width="4.76" height="2.22" transform="translate(851.61 487.54) rotate(180)" style="fill:#fff"></rect><rect x="423.43" y="246.96" width="4.76" height="2.22" transform="translate(851.61 496.14) rotate(180)" style="fill:#fff"></rect><rect x="423.43" y="251.26" width="4.76" height="2.22" transform="translate(851.61 504.75) rotate(180)" style="fill:#fff"></rect><rect x="423.43" y="255.57" width="4.76" height="2.22" transform="translate(851.61 513.35) rotate(180)" style="fill:#fff"></rect><rect x="460.85" y="209.49" width="4.96" height="3.5" transform="translate(926.65 422.47) rotate(180)" style="fill:#fff"></rect><rect x="453.46" y="209.49" width="4.96" height="3.5" transform="translate(911.87 422.47) rotate(180)" style="fill:#fff"></rect><rect x="460.85" y="214.62" width="4.96" height="3.5" transform="translate(926.65 432.74) rotate(180)" style="fill:#fff"></rect><rect x="453.46" y="214.62" width="4.96" height="3.5" transform="translate(911.87 432.74) rotate(180)" style="fill:#fff"></rect><rect x="460.85" y="219.76" width="4.96" height="3.5" transform="translate(926.65 443.02) rotate(180)" style="fill:#fff"></rect><rect x="453.46" y="219.76" width="4.96" height="3.5" transform="translate(911.87 443.02) rotate(180)" style="fill:#fff"></rect><rect x="460.85" y="224.9" width="4.96" height="3.5" transform="translate(926.65 453.29) rotate(180)" style="fill:#fff"></rect><rect x="453.46" y="224.9" width="4.96" height="3.5" transform="translate(911.87 453.29) rotate(180)" style="fill:#fff"></rect><rect x="460.85" y="230.03" width="4.96" height="3.5" transform="translate(926.65 463.57) rotate(180)" style="fill:#fff"></rect><rect x="453.46" y="230.03" width="4.96" height="3.5" transform="translate(911.87 463.57) rotate(180)" style="fill:#fff"></rect><rect x="460.85" y="235.17" width="4.96" height="3.5" transform="translate(926.65 473.84) rotate(180)" style="fill:#fff"></rect><rect x="453.46" y="235.17" width="4.96" height="3.5" transform="translate(911.87 473.84) rotate(180)" style="fill:#fff"></rect><rect x="460.85" y="240.31" width="4.96" height="3.5" transform="translate(926.65 484.11) rotate(180)" style="fill:#fff"></rect><rect x="453.46" y="240.31" width="4.96" height="3.5" transform="translate(911.87 484.11) rotate(180)" style="fill:#fff"></rect><rect x="460.85" y="245.45" width="4.96" height="3.5" transform="translate(926.65 494.39) rotate(180)" style="fill:#fff"></rect><rect x="453.46" y="245.45" width="4.96" height="3.5" transform="translate(911.87 494.39) rotate(180)" style="fill:#fff"></rect><rect x="444.3" y="219.76" width="4.96" height="3.5" transform="translate(893.56 443.02) rotate(180)" style="fill:#fff"></rect><rect x="444.3" y="224.9" width="4.96" height="3.5" transform="translate(893.56 453.29) rotate(180)" style="fill:#fff"></rect><rect x="444.3" y="230.03" width="4.96" height="3.5" transform="translate(893.56 463.57) rotate(180)" style="fill:#fff"></rect><rect x="444.3" y="235.17" width="4.96" height="3.5" transform="translate(893.56 473.84) rotate(180)" style="fill:#fff"></rect><rect x="444.3" y="240.31" width="4.96" height="3.5" transform="translate(893.56 484.11) rotate(180)" style="fill:#fff"></rect><rect x="444.3" y="245.45" width="4.96" height="3.5" transform="translate(893.56 494.39) rotate(180)" style="fill:#fff"></rect><rect x="460.85" y="250.52" width="4.96" height="3.5" transform="translate(926.65 504.54) rotate(180)" style="fill:#fff"></rect><rect x="453.46" y="250.52" width="4.96" height="3.5" transform="translate(911.87 504.54) rotate(180)" style="fill:#fff"></rect><rect x="444.3" y="250.52" width="4.96" height="3.5" transform="translate(893.56 504.54) rotate(180)" style="fill:#fff"></rect><rect x="460.85" y="255.6" width="4.96" height="3.5" transform="translate(926.65 514.69) rotate(180)" style="fill:#fff"></rect><rect x="453.46" y="255.6" width="4.96" height="3.5" transform="translate(911.87 514.69) rotate(180)" style="fill:#fff"></rect><rect x="444.3" y="255.6" width="4.96" height="3.5" transform="translate(893.56 514.69) rotate(180)" style="fill:#fff"></rect><rect x="460.85" y="260.67" width="4.96" height="3.5" transform="translate(926.65 524.84) rotate(180)" style="fill:#fff"></rect><rect x="453.46" y="260.67" width="4.96" height="3.5" transform="translate(911.87 524.84) rotate(180)" style="fill:#fff"></rect><rect x="444.3" y="260.67" width="4.96" height="3.5" transform="translate(893.56 524.84) rotate(180)" style="fill:#fff"></rect><rect x="460.85" y="265.75" width="4.96" height="3.5" transform="translate(926.65 535) rotate(180)" style="fill:#fff"></rect><rect x="453.46" y="265.75" width="4.96" height="3.5" transform="translate(911.87 535) rotate(180)" style="fill:#fff"></rect><rect x="444.3" y="265.75" width="4.96" height="3.5" transform="translate(893.56 535) rotate(180)" style="fill:#fff"></rect><rect x="460.85" y="270.83" width="4.96" height="3.5" transform="translate(926.65 545.15) rotate(180)" style="fill:#fff"></rect><rect x="453.46" y="270.83" width="4.96" height="3.5" transform="translate(911.87 545.15) rotate(180)" style="fill:#fff"></rect><rect x="444.3" y="270.83" width="4.96" height="3.5" transform="translate(893.56 545.15) rotate(180)" style="fill:#fff"></rect><rect x="399.55" y="214.48" width="2.68" height="3.06" transform="translate(801.77 432.02) rotate(180)" style="fill:#fff"></rect><rect x="394.91" y="214.48" width="2.68" height="3.06" transform="translate(792.49 432.02) rotate(180)" style="fill:#fff"></rect><rect x="399.55" y="219.09" width="2.68" height="3.06" transform="translate(801.77 441.24) rotate(180)" style="fill:#fff"></rect><rect x="394.91" y="219.09" width="2.68" height="3.06" transform="translate(792.49 441.24) rotate(180)" style="fill:#fff"></rect><rect x="399.55" y="223.7" width="2.68" height="3.06" transform="translate(801.77 450.45) rotate(180)" style="fill:#fff"></rect><rect x="394.91" y="223.7" width="2.68" height="3.06" transform="translate(792.49 450.45) rotate(180)" style="fill:#fff"></rect><rect x="399.55" y="228.3" width="2.68" height="3.06" transform="translate(801.77 459.67) rotate(180)" style="fill:#fff"></rect><rect x="394.91" y="228.3" width="2.68" height="3.06" transform="translate(792.49 459.67) rotate(180)" style="fill:#fff"></rect><rect x="399.55" y="233.03" width="2.68" height="3.06" transform="translate(801.77 469.12) rotate(180)" style="fill:#fff"></rect><rect x="394.91" y="233.03" width="2.68" height="3.06" transform="translate(792.49 469.12) rotate(180)" style="fill:#fff"></rect><rect x="399.55" y="237.75" width="2.68" height="3.06" transform="translate(801.77 478.56) rotate(180)" style="fill:#fff"></rect><rect x="394.91" y="237.75" width="2.68" height="3.06" transform="translate(792.49 478.56) rotate(180)" style="fill:#fff"></rect><rect x="399.55" y="242.47" width="2.68" height="3.06" transform="translate(801.77 488.01) rotate(180)" style="fill:#fff"></rect><rect x="394.91" y="242.47" width="2.68" height="3.06" transform="translate(792.49 488.01) rotate(180)" style="fill:#fff"></rect><rect x="399.55" y="247.2" width="2.68" height="3.06" transform="translate(801.77 497.45) rotate(180)" style="fill:#fff"></rect><rect x="394.91" y="247.2" width="2.68" height="3.06" transform="translate(792.49 497.45) rotate(180)" style="fill:#fff"></rect><rect x="399.55" y="251.97" width="2.68" height="3.06" transform="translate(801.77 507) rotate(180)" style="fill:#fff"></rect><rect x="394.91" y="251.97" width="2.68" height="3.06" transform="translate(792.49 507) rotate(180)" style="fill:#fff"></rect><rect x="399.55" y="256.74" width="2.68" height="3.06" transform="translate(801.77 516.55) rotate(180)" style="fill:#fff"></rect><rect x="394.91" y="256.74" width="2.68" height="3.06" transform="translate(792.49 516.55) rotate(180)" style="fill:#fff"></rect><rect x="399.55" y="261.51" width="2.68" height="3.06" transform="translate(801.77 526.09) rotate(180)" style="fill:#fff"></rect><rect x="394.91" y="261.51" width="2.68" height="3.06" transform="translate(792.49 526.09) rotate(180)" style="fill:#fff"></rect><rect x="399.55" y="266.29" width="2.68" height="3.06" transform="translate(801.77 535.64) rotate(180)" style="fill:#fff"></rect><rect x="394.91" y="266.29" width="2.68" height="3.06" transform="translate(792.49 535.64) rotate(180)" style="fill:#fff"></rect><rect x="334.21" y="214.98" width="2.68" height="3.61" transform="translate(671.11 433.56) rotate(180)" style="fill:#fff"></rect><rect x="329.58" y="214.98" width="2.68" height="3.61" transform="translate(661.83 433.56) rotate(180)" style="fill:#fff"></rect><rect x="334.21" y="220.41" width="2.68" height="3.61" transform="translate(671.11 444.42) rotate(180)" style="fill:#fff"></rect><rect x="329.58" y="220.41" width="2.68" height="3.61" transform="translate(661.83 444.42) rotate(180)" style="fill:#fff"></rect><rect x="334.21" y="225.84" width="2.68" height="3.61" transform="translate(671.11 455.28) rotate(180)" style="fill:#fff"></rect><rect x="329.58" y="225.84" width="2.68" height="3.61" transform="translate(661.83 455.28) rotate(180)" style="fill:#fff"></rect><rect x="334.21" y="231.26" width="2.68" height="3.61" transform="translate(671.11 466.14) rotate(180)" style="fill:#fff"></rect><rect x="329.58" y="231.26" width="2.68" height="3.61" transform="translate(661.83 466.14) rotate(180)" style="fill:#fff"></rect><rect x="334.21" y="236.83" width="2.68" height="3.61" transform="translate(671.11 477.27) rotate(180)" style="fill:#fff"></rect><rect x="329.58" y="236.83" width="2.68" height="3.61" transform="translate(661.83 477.27) rotate(180)" style="fill:#fff"></rect><rect x="334.21" y="242.39" width="2.68" height="3.61" transform="translate(671.11 488.39) rotate(180)" style="fill:#fff"></rect><rect x="329.58" y="242.39" width="2.68" height="3.61" transform="translate(661.83 488.39) rotate(180)" style="fill:#fff"></rect><rect x="334.21" y="247.96" width="2.68" height="3.61" transform="translate(671.11 499.52) rotate(180)" style="fill:#fff"></rect><rect x="329.58" y="247.96" width="2.68" height="3.61" transform="translate(661.83 499.52) rotate(180)" style="fill:#fff"></rect><rect x="334.21" y="253.52" width="2.68" height="3.61" transform="translate(671.11 510.65) rotate(180)" style="fill:#fff"></rect><rect x="329.58" y="253.52" width="2.68" height="3.61" transform="translate(661.83 510.65) rotate(180)" style="fill:#fff"></rect><rect x="334.21" y="259.14" width="2.68" height="3.61" transform="translate(671.11 521.9) rotate(180)" style="fill:#fff"></rect><rect x="329.58" y="259.14" width="2.68" height="3.61" transform="translate(661.83 521.9) rotate(180)" style="fill:#fff"></rect><rect x="334.21" y="264.77" width="2.68" height="3.61" transform="translate(671.11 533.14) rotate(180)" style="fill:#fff"></rect><rect x="329.58" y="264.77" width="2.68" height="3.61" transform="translate(661.83 533.14) rotate(180)" style="fill:#fff"></rect><rect x="334.21" y="270.39" width="2.68" height="3.61" transform="translate(671.11 544.39) rotate(180)" style="fill:#fff"></rect><rect x="329.58" y="270.39" width="2.68" height="3.61" transform="translate(661.83 544.39) rotate(180)" style="fill:#fff"></rect><rect x="334.21" y="276.01" width="2.68" height="3.61" transform="translate(671.11 555.64) rotate(180)" style="fill:#fff"></rect><rect x="329.58" y="276.01" width="2.68" height="3.61" transform="translate(661.83 555.64) rotate(180)" style="fill:#fff"></rect><rect x="389.63" y="214.48" width="2.68" height="3.06" transform="translate(781.93 432.02) rotate(180)" style="fill:#fff"></rect><rect x="384.99" y="214.48" width="2.68" height="3.06" transform="translate(772.66 432.02) rotate(180)" style="fill:#fff"></rect><rect x="389.63" y="209.75" width="2.68" height="3.06" transform="translate(781.93 422.57) rotate(180)" style="fill:#fff"></rect><rect x="384.99" y="209.75" width="2.68" height="3.06" transform="translate(772.66 422.57) rotate(180)" style="fill:#fff"></rect><rect x="389.63" y="205.03" width="2.68" height="3.06" transform="translate(781.93 413.12) rotate(180)" style="fill:#fff"></rect><rect x="384.99" y="205.03" width="2.68" height="3.06" transform="translate(772.66 413.12) rotate(180)" style="fill:#fff"></rect><rect x="389.63" y="219.09" width="2.68" height="3.06" transform="translate(781.93 441.24) rotate(180)" style="fill:#fff"></rect><rect x="384.99" y="219.09" width="2.68" height="3.06" transform="translate(772.66 441.24) rotate(180)" style="fill:#fff"></rect><rect x="389.63" y="223.7" width="2.68" height="3.06" transform="translate(781.93 450.45) rotate(180)" style="fill:#fff"></rect><rect x="384.99" y="223.7" width="2.68" height="3.06" transform="translate(772.66 450.45) rotate(180)" style="fill:#fff"></rect><rect x="389.63" y="228.3" width="2.68" height="3.06" transform="translate(781.93 459.67) rotate(180)" style="fill:#fff"></rect><rect x="384.99" y="228.3" width="2.68" height="3.06" transform="translate(772.66 459.67) rotate(180)" style="fill:#fff"></rect><rect x="389.63" y="233.03" width="2.68" height="3.06" transform="translate(781.93 469.12) rotate(180)" style="fill:#fff"></rect><rect x="384.99" y="233.03" width="2.68" height="3.06" transform="translate(772.66 469.12) rotate(180)" style="fill:#fff"></rect><rect x="389.63" y="237.75" width="2.68" height="3.06" transform="translate(781.93 478.56) rotate(180)" style="fill:#fff"></rect><rect x="384.99" y="237.75" width="2.68" height="3.06" transform="translate(772.66 478.56) rotate(180)" style="fill:#fff"></rect><rect x="389.63" y="242.47" width="2.68" height="3.06" transform="translate(781.93 488.01) rotate(180)" style="fill:#fff"></rect><rect x="384.99" y="242.47" width="2.68" height="3.06" transform="translate(772.66 488.01) rotate(180)" style="fill:#fff"></rect><rect x="389.63" y="247.2" width="2.68" height="3.06" transform="translate(781.93 497.45) rotate(180)" style="fill:#fff"></rect><rect x="384.99" y="247.2" width="2.68" height="3.06" transform="translate(772.66 497.45) rotate(180)" style="fill:#fff"></rect><rect x="389.63" y="251.97" width="2.68" height="3.06" transform="translate(781.93 507) rotate(180)" style="fill:#fff"></rect><rect x="384.99" y="251.97" width="2.68" height="3.06" transform="translate(772.66 507) rotate(180)" style="fill:#fff"></rect><rect x="389.63" y="256.74" width="2.68" height="3.06" transform="translate(781.93 516.55) rotate(180)" style="fill:#fff"></rect><rect x="384.99" y="256.74" width="2.68" height="3.06" transform="translate(772.66 516.55) rotate(180)" style="fill:#fff"></rect><rect x="389.63" y="261.51" width="2.68" height="3.06" transform="translate(781.93 526.09) rotate(180)" style="fill:#fff"></rect><rect x="384.99" y="261.51" width="2.68" height="3.06" transform="translate(772.66 526.09) rotate(180)" style="fill:#fff"></rect><rect x="389.63" y="266.29" width="2.68" height="3.06" transform="translate(781.93 535.64) rotate(180)" style="fill:#fff"></rect><rect x="384.99" y="266.29" width="2.68" height="3.06" transform="translate(772.66 535.64) rotate(180)" style="fill:#fff"></rect><polygon points="511.11 303.62 678.86 303.62 678.86 199.92 658.77 199.92 658.77 224.33 653.6 224.33 653.6 210.51 628.05 210.51 628.05 232.39 624.67 232.39 624.67 181.05 602.46 181.05 602.46 195.14 591.08 195.14 591.08 212.68 587.63 212.68 587.63 201.65 567.44 201.65 567.44 234.55 561.54 234.55 561.54 207.81 543.08 207.81 543.08 187.49 530.52 187.49 516 187.56 516 227.24 511.12 227.24 511.11 303.62" style="fill:#ebebeb"></polygon><rect x="673" y="202.99" width="3.4" height="4.67" transform="translate(1349.4 410.65) rotate(180)" style="fill:#fff"></rect><rect x="667.11" y="202.99" width="3.4" height="4.67" transform="translate(1337.62 410.65) rotate(180)" style="fill:#fff"></rect><rect x="661.22" y="202.99" width="3.4" height="4.67" transform="translate(1325.83 410.65) rotate(180)" style="fill:#fff"></rect><rect x="673" y="210.01" width="3.4" height="4.67" transform="translate(1349.4 424.69) rotate(180)" style="fill:#fff"></rect><rect x="667.11" y="210.01" width="3.4" height="4.67" transform="translate(1337.62 424.69) rotate(180)" style="fill:#fff"></rect><rect x="661.22" y="210.01" width="3.4" height="4.67" transform="translate(1325.83 424.69) rotate(180)" style="fill:#fff"></rect><rect x="673" y="217.03" width="3.4" height="4.67" transform="translate(1349.4 438.73) rotate(180)" style="fill:#fff"></rect><rect x="667.11" y="217.03" width="3.4" height="4.67" transform="translate(1337.62 438.73) rotate(180)" style="fill:#fff"></rect><rect x="661.22" y="217.03" width="3.4" height="4.67" transform="translate(1325.83 438.73) rotate(180)" style="fill:#fff"></rect><rect x="673" y="224.05" width="3.4" height="4.67" transform="translate(1349.4 452.77) rotate(180)" style="fill:#fff"></rect><rect x="667.11" y="224.05" width="3.4" height="4.67" transform="translate(1337.62 452.77) rotate(180)" style="fill:#fff"></rect><rect x="661.22" y="224.05" width="3.4" height="4.67" transform="translate(1325.83 452.77) rotate(180)" style="fill:#fff"></rect><rect x="555.3" y="211.14" width="3.4" height="3.89" transform="translate(1114.01 426.16) rotate(180)" style="fill:#fff"></rect><rect x="549.41" y="211.14" width="3.4" height="3.89" transform="translate(1102.22 426.16) rotate(180)" style="fill:#fff"></rect><rect x="543.52" y="211.14" width="3.4" height="3.89" transform="translate(1090.44 426.16) rotate(180)" style="fill:#fff"></rect><rect x="555.3" y="216.99" width="3.4" height="3.89" transform="translate(1114.01 437.88) rotate(180)" style="fill:#fff"></rect><rect x="549.41" y="216.99" width="3.4" height="3.89" transform="translate(1102.22 437.88) rotate(180)" style="fill:#fff"></rect><rect x="543.52" y="216.99" width="3.4" height="3.89" transform="translate(1090.44 437.88) rotate(180)" style="fill:#fff"></rect><rect x="555.3" y="222.85" width="3.4" height="3.89" transform="translate(1114.01 449.59) rotate(180)" style="fill:#fff"></rect><rect x="549.41" y="222.85" width="3.4" height="3.89" transform="translate(1102.22 449.59) rotate(180)" style="fill:#fff"></rect><rect x="543.52" y="222.85" width="3.4" height="3.89" transform="translate(1090.44 449.59) rotate(180)" style="fill:#fff"></rect><rect x="555.3" y="228.7" width="3.4" height="3.89" transform="translate(1114.01 461.3) rotate(180)" style="fill:#fff"></rect><rect x="549.41" y="228.7" width="3.4" height="3.89" transform="translate(1102.22 461.3) rotate(180)" style="fill:#fff"></rect><rect x="543.52" y="228.7" width="3.4" height="3.89" transform="translate(1090.44 461.3) rotate(180)" style="fill:#fff"></rect><rect x="555.3" y="234.71" width="3.4" height="3.89" transform="translate(1114.01 473.3) rotate(180)" style="fill:#fff"></rect><rect x="549.41" y="234.71" width="3.4" height="3.89" transform="translate(1102.22 473.3) rotate(180)" style="fill:#fff"></rect><rect x="543.52" y="234.71" width="3.4" height="3.89" transform="translate(1090.44 473.3) rotate(180)" style="fill:#fff"></rect><rect x="555.3" y="240.71" width="3.4" height="3.89" transform="translate(1114.01 485.31) rotate(180)" style="fill:#fff"></rect><rect x="549.41" y="240.71" width="3.4" height="3.89" transform="translate(1102.22 485.31) rotate(180)" style="fill:#fff"></rect><rect x="543.52" y="240.71" width="3.4" height="3.89" transform="translate(1090.44 485.31) rotate(180)" style="fill:#fff"></rect><rect x="555.3" y="246.71" width="3.4" height="3.89" transform="translate(1114.01 497.31) rotate(180)" style="fill:#fff"></rect><rect x="549.41" y="246.71" width="3.4" height="3.89" transform="translate(1102.22 497.31) rotate(180)" style="fill:#fff"></rect><rect x="543.52" y="246.71" width="3.4" height="3.89" transform="translate(1090.44 497.31) rotate(180)" style="fill:#fff"></rect><rect x="555.3" y="252.71" width="3.4" height="3.89" transform="translate(1114.01 509.31) rotate(180)" style="fill:#fff"></rect><rect x="549.41" y="252.71" width="3.4" height="3.89" transform="translate(1102.22 509.31) rotate(180)" style="fill:#fff"></rect><rect x="543.52" y="252.71" width="3.4" height="3.89" transform="translate(1090.44 509.31) rotate(180)" style="fill:#fff"></rect><rect x="631.13" y="213.5" width="19.57" height="2.92" transform="translate(1281.83 429.93) rotate(180)" style="fill:#fff"></rect><rect x="631.13" y="219.17" width="19.57" height="2.92" transform="translate(1281.83 441.25) rotate(180)" style="fill:#fff"></rect><rect x="631.13" y="224.83" width="19.57" height="2.92" transform="translate(1281.83 452.57) rotate(180)" style="fill:#fff"></rect><rect x="631.13" y="230.49" width="19.57" height="2.92" transform="translate(1281.83 463.89) rotate(180)" style="fill:#fff"></rect><rect x="631.13" y="236.15" width="19.57" height="2.92" transform="translate(1281.83 475.22) rotate(180)" style="fill:#fff"></rect><rect x="631.13" y="241.81" width="19.57" height="2.92" transform="translate(1281.83 486.54) rotate(180)" style="fill:#fff"></rect><rect x="631.13" y="247.47" width="19.57" height="2.92" transform="translate(1281.83 497.86) rotate(180)" style="fill:#fff"></rect><rect x="631.13" y="253.13" width="19.57" height="2.92" transform="translate(1281.83 509.18) rotate(180)" style="fill:#fff"></rect><rect x="575.68" y="204.29" width="6.04" height="2.82" transform="translate(1157.41 411.4) rotate(180)" style="fill:#fff"></rect><rect x="575.68" y="209.76" width="6.04" height="2.82" transform="translate(1157.41 422.33) rotate(180)" style="fill:#fff"></rect><rect x="575.68" y="215.22" width="6.04" height="2.82" transform="translate(1157.41 433.27) rotate(180)" style="fill:#fff"></rect><rect x="575.68" y="220.69" width="6.04" height="2.82" transform="translate(1157.41 444.2) rotate(180)" style="fill:#fff"></rect><rect x="575.68" y="226.16" width="6.04" height="2.82" transform="translate(1157.41 455.14) rotate(180)" style="fill:#fff"></rect><rect x="575.68" y="231.63" width="6.04" height="2.82" transform="translate(1157.41 466.07) rotate(180)" style="fill:#fff"></rect><rect x="575.68" y="237.09" width="6.04" height="2.82" transform="translate(1157.41 477) rotate(180)" style="fill:#fff"></rect><rect x="575.68" y="242.56" width="6.04" height="2.82" transform="translate(1157.41 487.94) rotate(180)" style="fill:#fff"></rect><rect x="567.46" y="204.29" width="6.04" height="2.82" transform="translate(1140.96 411.4) rotate(180)" style="fill:#fff"></rect><rect x="567.46" y="209.76" width="6.04" height="2.82" transform="translate(1140.96 422.33) rotate(180)" style="fill:#fff"></rect><rect x="567.46" y="215.22" width="6.04" height="2.82" transform="translate(1140.96 433.27) rotate(180)" style="fill:#fff"></rect><rect x="567.46" y="220.69" width="6.04" height="2.82" transform="translate(1140.96 444.2) rotate(180)" style="fill:#fff"></rect><rect x="567.46" y="226.16" width="6.04" height="2.82" transform="translate(1140.96 455.14) rotate(180)" style="fill:#fff"></rect><rect x="567.46" y="231.63" width="6.04" height="2.82" transform="translate(1140.96 466.07) rotate(180)" style="fill:#fff"></rect><rect x="567.46" y="237.09" width="6.04" height="2.82" transform="translate(1140.96 477) rotate(180)" style="fill:#fff"></rect><rect x="567.46" y="242.56" width="6.04" height="2.82" transform="translate(1140.96 487.94) rotate(180)" style="fill:#fff"></rect><rect x="615" y="184.01" width="6.3" height="4.44" transform="translate(1236.3 372.46) rotate(180)" style="fill:#fff"></rect><rect x="605.62" y="184.01" width="6.3" height="4.44" transform="translate(1217.53 372.46) rotate(180)" style="fill:#fff"></rect><rect x="615" y="190.53" width="6.3" height="4.44" transform="translate(1236.3 385.51) rotate(180)" style="fill:#fff"></rect><rect x="605.62" y="190.53" width="6.3" height="4.44" transform="translate(1217.53 385.51) rotate(180)" style="fill:#fff"></rect><rect x="615" y="197.06" width="6.3" height="4.44" transform="translate(1236.3 398.57) rotate(180)" style="fill:#fff"></rect><rect x="605.62" y="197.06" width="6.3" height="4.44" transform="translate(1217.53 398.57) rotate(180)" style="fill:#fff"></rect><rect x="615" y="203.59" width="6.3" height="4.44" transform="translate(1236.3 411.62) rotate(180)" style="fill:#fff"></rect><rect x="605.62" y="203.59" width="6.3" height="4.44" transform="translate(1217.53 411.62) rotate(180)" style="fill:#fff"></rect><rect x="615" y="210.12" width="6.3" height="4.44" transform="translate(1236.3 424.68) rotate(180)" style="fill:#fff"></rect><rect x="605.62" y="210.12" width="6.3" height="4.44" transform="translate(1217.53 424.68) rotate(180)" style="fill:#fff"></rect><rect x="615" y="216.64" width="6.3" height="4.44" transform="translate(1236.3 437.73) rotate(180)" style="fill:#fff"></rect><rect x="605.62" y="216.64" width="6.3" height="4.44" transform="translate(1217.53 437.73) rotate(180)" style="fill:#fff"></rect><rect x="615" y="223.17" width="6.3" height="4.44" transform="translate(1236.3 450.79) rotate(180)" style="fill:#fff"></rect><rect x="605.62" y="223.17" width="6.3" height="4.44" transform="translate(1217.53 450.79) rotate(180)" style="fill:#fff"></rect><rect x="615" y="229.7" width="6.3" height="4.44" transform="translate(1236.3 463.84) rotate(180)" style="fill:#fff"></rect><rect x="605.62" y="229.7" width="6.3" height="4.44" transform="translate(1217.53 463.84) rotate(180)" style="fill:#fff"></rect><rect x="593.98" y="197.06" width="6.3" height="4.44" transform="translate(1194.26 398.57) rotate(180)" style="fill:#fff"></rect><rect x="593.98" y="203.59" width="6.3" height="4.44" transform="translate(1194.26 411.62) rotate(180)" style="fill:#fff"></rect><rect x="593.98" y="210.12" width="6.3" height="4.44" transform="translate(1194.26 424.68) rotate(180)" style="fill:#fff"></rect><rect x="593.98" y="216.64" width="6.3" height="4.44" transform="translate(1194.26 437.73) rotate(180)" style="fill:#fff"></rect><rect x="593.98" y="223.17" width="6.3" height="4.44" transform="translate(1194.26 450.79) rotate(180)" style="fill:#fff"></rect><rect x="593.98" y="229.7" width="6.3" height="4.44" transform="translate(1194.26 463.84) rotate(180)" style="fill:#fff"></rect><rect x="615" y="236.15" width="6.3" height="4.44" transform="translate(1236.3 476.74) rotate(180)" style="fill:#fff"></rect><rect x="605.62" y="236.15" width="6.3" height="4.44" transform="translate(1217.53 476.74) rotate(180)" style="fill:#fff"></rect><rect x="593.98" y="236.15" width="6.3" height="4.44" transform="translate(1194.26 476.74) rotate(180)" style="fill:#fff"></rect><rect x="615" y="242.6" width="6.3" height="4.44" transform="translate(1236.3 489.64) rotate(180)" style="fill:#fff"></rect><rect x="605.62" y="242.6" width="6.3" height="4.44" transform="translate(1217.53 489.64) rotate(180)" style="fill:#fff"></rect><rect x="593.98" y="242.6" width="6.3" height="4.44" transform="translate(1194.26 489.64) rotate(180)" style="fill:#fff"></rect><rect x="615" y="249.05" width="6.3" height="4.44" transform="translate(1236.3 502.54) rotate(180)" style="fill:#fff"></rect><rect x="605.62" y="249.05" width="6.3" height="4.44" transform="translate(1217.53 502.54) rotate(180)" style="fill:#fff"></rect><rect x="593.98" y="249.05" width="6.3" height="4.44" transform="translate(1194.26 502.54) rotate(180)" style="fill:#fff"></rect><rect x="615" y="255.5" width="6.3" height="4.44" transform="translate(1236.3 515.44) rotate(180)" style="fill:#fff"></rect><rect x="605.62" y="255.5" width="6.3" height="4.44" transform="translate(1217.53 515.44) rotate(180)" style="fill:#fff"></rect><rect x="593.98" y="255.5" width="6.3" height="4.44" transform="translate(1194.26 515.44) rotate(180)" style="fill:#fff"></rect><rect x="615" y="261.95" width="6.3" height="4.44" transform="translate(1236.3 528.34) rotate(180)" style="fill:#fff"></rect><rect x="605.62" y="261.95" width="6.3" height="4.44" transform="translate(1217.53 528.34) rotate(180)" style="fill:#fff"></rect><rect x="593.98" y="261.95" width="6.3" height="4.44" transform="translate(1194.26 528.34) rotate(180)" style="fill:#fff"></rect><rect x="537.11" y="190.35" width="3.4" height="3.89" transform="translate(1077.62 384.59) rotate(180)" style="fill:#fff"></rect><rect x="531.22" y="190.35" width="3.4" height="3.89" transform="translate(1065.84 384.59) rotate(180)" style="fill:#fff"></rect><rect x="537.11" y="196.21" width="3.4" height="3.89" transform="translate(1077.62 396.3) rotate(180)" style="fill:#fff"></rect><rect x="531.22" y="196.21" width="3.4" height="3.89" transform="translate(1065.84 396.3) rotate(180)" style="fill:#fff"></rect><rect x="537.11" y="202.06" width="3.4" height="3.89" transform="translate(1077.62 408.02) rotate(180)" style="fill:#fff"></rect><rect x="531.22" y="202.06" width="3.4" height="3.89" transform="translate(1065.84 408.02) rotate(180)" style="fill:#fff"></rect><rect x="537.11" y="207.92" width="3.4" height="3.89" transform="translate(1077.62 419.73) rotate(180)" style="fill:#fff"></rect><rect x="531.22" y="207.92" width="3.4" height="3.89" transform="translate(1065.84 419.73) rotate(180)" style="fill:#fff"></rect><rect x="537.11" y="213.92" width="3.4" height="3.89" transform="translate(1077.62 431.73) rotate(180)" style="fill:#fff"></rect><rect x="531.22" y="213.92" width="3.4" height="3.89" transform="translate(1065.84 431.73) rotate(180)" style="fill:#fff"></rect><rect x="537.11" y="219.92" width="3.4" height="3.89" transform="translate(1077.62 443.73) rotate(180)" style="fill:#fff"></rect><rect x="531.22" y="219.92" width="3.4" height="3.89" transform="translate(1065.84 443.73) rotate(180)" style="fill:#fff"></rect><rect x="537.11" y="225.92" width="3.4" height="3.89" transform="translate(1077.62 455.74) rotate(180)" style="fill:#fff"></rect><rect x="531.22" y="225.92" width="3.4" height="3.89" transform="translate(1065.84 455.74) rotate(180)" style="fill:#fff"></rect><rect x="537.11" y="231.92" width="3.4" height="3.89" transform="translate(1077.62 467.74) rotate(180)" style="fill:#fff"></rect><rect x="531.22" y="231.92" width="3.4" height="3.89" transform="translate(1065.84 467.74) rotate(180)" style="fill:#fff"></rect><rect x="537.11" y="237.99" width="3.4" height="3.89" transform="translate(1077.62 479.87) rotate(180)" style="fill:#fff"></rect><rect x="531.22" y="237.99" width="3.4" height="3.89" transform="translate(1065.84 479.87) rotate(180)" style="fill:#fff"></rect><rect x="537.11" y="244.05" width="3.4" height="3.89" transform="translate(1077.62 492) rotate(180)" style="fill:#fff"></rect><rect x="531.22" y="244.05" width="3.4" height="3.89" transform="translate(1065.84 492) rotate(180)" style="fill:#fff"></rect><rect x="537.11" y="250.12" width="3.4" height="3.89" transform="translate(1077.62 504.13) rotate(180)" style="fill:#fff"></rect><rect x="531.22" y="250.12" width="3.4" height="3.89" transform="translate(1065.84 504.13) rotate(180)" style="fill:#fff"></rect><rect x="537.11" y="256.18" width="3.4" height="3.89" transform="translate(1077.62 516.26) rotate(180)" style="fill:#fff"></rect><rect x="531.22" y="256.18" width="3.4" height="3.89" transform="translate(1065.84 516.26) rotate(180)" style="fill:#fff"></rect><rect x="524.51" y="190.35" width="3.4" height="3.89" transform="translate(1052.42 384.59) rotate(180)" style="fill:#fff"></rect><rect x="518.62" y="190.35" width="3.4" height="3.89" transform="translate(1040.64 384.59) rotate(180)" style="fill:#fff"></rect><rect x="524.51" y="196.21" width="3.4" height="3.89" transform="translate(1052.42 396.3) rotate(180)" style="fill:#fff"></rect><rect x="518.62" y="196.21" width="3.4" height="3.89" transform="translate(1040.64 396.3) rotate(180)" style="fill:#fff"></rect><rect x="524.51" y="202.06" width="3.4" height="3.89" transform="translate(1052.42 408.02) rotate(180)" style="fill:#fff"></rect><rect x="518.62" y="202.06" width="3.4" height="3.89" transform="translate(1040.64 408.02) rotate(180)" style="fill:#fff"></rect><rect x="524.51" y="207.92" width="3.4" height="3.89" transform="translate(1052.42 419.73) rotate(180)" style="fill:#fff"></rect><rect x="518.62" y="207.92" width="3.4" height="3.89" transform="translate(1040.64 419.73) rotate(180)" style="fill:#fff"></rect><rect x="524.51" y="213.92" width="3.4" height="3.89" transform="translate(1052.42 431.73) rotate(180)" style="fill:#fff"></rect><rect x="518.62" y="213.92" width="3.4" height="3.89" transform="translate(1040.64 431.73) rotate(180)" style="fill:#fff"></rect><rect x="524.51" y="219.92" width="3.4" height="3.89" transform="translate(1052.42 443.73) rotate(180)" style="fill:#fff"></rect><rect x="518.62" y="219.92" width="3.4" height="3.89" transform="translate(1040.64 443.73) rotate(180)" style="fill:#fff"></rect><rect x="524.51" y="225.92" width="3.4" height="3.89" transform="translate(1052.42 455.74) rotate(180)" style="fill:#fff"></rect><rect x="518.62" y="225.92" width="3.4" height="3.89" transform="translate(1040.64 455.74) rotate(180)" style="fill:#fff"></rect><rect x="524.51" y="231.92" width="3.4" height="3.89" transform="translate(1052.42 467.74) rotate(180)" style="fill:#fff"></rect><rect x="518.62" y="231.92" width="3.4" height="3.89" transform="translate(1040.64 467.74) rotate(180)" style="fill:#fff"></rect><rect x="524.51" y="237.99" width="3.4" height="3.89" transform="translate(1052.42 479.87) rotate(180)" style="fill:#fff"></rect><rect x="518.62" y="237.99" width="3.4" height="3.89" transform="translate(1040.64 479.87) rotate(180)" style="fill:#fff"></rect><rect x="524.51" y="244.05" width="3.4" height="3.89" transform="translate(1052.42 492) rotate(180)" style="fill:#fff"></rect><rect x="518.62" y="244.05" width="3.4" height="3.89" transform="translate(1040.64 492) rotate(180)" style="fill:#fff"></rect><rect x="524.51" y="250.12" width="3.4" height="3.89" transform="translate(1052.42 504.13) rotate(180)" style="fill:#fff"></rect><rect x="518.62" y="250.12" width="3.4" height="3.89" transform="translate(1040.64 504.13) rotate(180)" style="fill:#fff"></rect><rect x="524.51" y="256.18" width="3.4" height="3.89" transform="translate(1052.42 516.26) rotate(180)" style="fill:#fff"></rect><rect x="518.62" y="256.18" width="3.4" height="3.89" transform="translate(1040.64 516.26) rotate(180)" style="fill:#fff"></rect><path d="M58.37,303.62c202.85-.61,430.41-.61,633.26,0-202.85.62-430.41.62-633.26,0Z" style="fill:#dbdbdb"></path></g><g id="freepik--Floor--inject-111"><path d="M58.37,454.44c202.85-.62,430.41-.62,633.26,0-202.85.61-430.41.61-633.26,0Z" style="fill:#263238"></path></g><g id="freepik--Device--inject-111"><path d="M248.05,64.33H75.8A17.59,17.59,0,0,0,58.37,82.08V436.69A17.6,17.6,0,0,0,75.8,454.44H248.05a17.61,17.61,0,0,0,17.44-17.75V82.08A17.59,17.59,0,0,0,248.05,64.33Zm6.55,361.39c0,9.34-7,16.89-15.61,16.89H84.88c-8.64,0-15.63-7.55-15.63-16.89V95.52c0-19,7-19.94,15.63-19.94h30.87c1.79,0,3.26,2,3.26,4.57v1.09c0,5.92,3.24,5.94,7.22,5.94h71.39c4,0,7.23,0,7.23-5.94V80.15c0-2.53,1.44-4.57,3.27-4.57H239c8.62,0,15.61,2.53,15.61,19.94Z" style="fill:#37474f"></path><path d="M171.66,79.78H152.19a1.2,1.2,0,0,1-1.2-1.2h0a1.2,1.2,0,0,1,1.2-1.2h19.47a1.2,1.2,0,0,1,1.21,1.2h0A1.21,1.21,0,0,1,171.66,79.78Z" style="fill:#263238"></path><path d="M254.6,95.52v330.2c0,9.34-7,16.89-15.61,16.89H84.89c-8.64,0-15.63-7.55-15.63-16.89V95.52c0-19,7-19.94,15.63-19.94h30.86c1.79,0,3.26,2,3.26,4.57v1.09c0,5.92,3.24,5.94,7.23,5.94h71.38c4,0,7.23,0,7.23-5.94V80.15c0-2.53,1.44-4.57,3.27-4.57H239C247.61,75.58,254.6,78.11,254.6,95.52Z" style="fill:#fff"></path><path d="M254.6,95.53v40.12H69.25V95.53c0-19,7-20,15.64-20h30.86c1.79,0,3.26,2,3.26,4.57v1.09c0,5.92,3.24,5.94,7.22,5.94h71.39c4,0,7.23,0,7.23-5.94V80.15c0-2.54,1.44-4.57,3.26-4.57H239C247.61,75.58,254.6,78.11,254.6,95.53Z" style="fill:#F38102"></path><path d="M128.27,116.61a5.15,5.15,0,0,1,5.14-5,5.22,5.22,0,0,1,3.24,1.1.84.84,0,0,1,.14,1.12.82.82,0,0,1-1.12.15,3.53,3.53,0,0,0-2.26-.77,3.7,3.7,0,0,0-2.52,1,3.44,3.44,0,0,0-1,2.44,3.38,3.38,0,0,0,1,2.43,3.7,3.7,0,0,0,2.52,1,3.5,3.5,0,0,0,2.26-.77.84.84,0,0,1,1.12.16.84.84,0,0,1-.14,1.12,5.27,5.27,0,0,1-3.24,1.09A5.13,5.13,0,0,1,128.27,116.61Z" style="fill:#fff"></path><path d="M144.29,119.34h-3.4l-.69,1.82a.79.79,0,0,1-.73.49,1,1,0,0,1-.26,0,.8.8,0,0,1-.47-1l3.1-8.25a.77.77,0,0,1,.74-.49.75.75,0,0,1,.74.49l3.1,8.25a.81.81,0,0,1-.46,1,1,1,0,0,1-.27,0,.74.74,0,0,1-.71-.49Zm-.57-1.54-1.14-3-1.13,3Z" style="fill:#fff"></path><path d="M154.82,120.49a.77.77,0,0,1-.49,1,1.56,1.56,0,0,1-.31,0h0a1,1,0,0,1-.55-.16,1.33,1.33,0,0,1-.45-.49,3.84,3.84,0,0,1-.29-1.68,1.14,1.14,0,0,0-.59-1,2.66,2.66,0,0,0-.78-.34h-1.66v3a.78.78,0,0,1-.78.77.76.76,0,0,1-.77-.77v-8.27a.76.76,0,0,1,.77-.77h2.51a3,3,0,0,1,3,3,3,3,0,0,1-1.09,2.29,2.22,2.22,0,0,1,.49.52,2.67,2.67,0,0,1,.46,1.51,3.62,3.62,0,0,0,.06.83A.76.76,0,0,1,154.82,120.49Zm-2-5.63a1.44,1.44,0,0,0-1.44-1.46h-1.73v2.88h1.73A1.44,1.44,0,0,0,152.86,114.86Z" style="fill:#fff"></path><path d="M167.77,120.49a.77.77,0,0,1-.49,1,1.56,1.56,0,0,1-.31,0h0a1,1,0,0,1-.55-.16,1.33,1.33,0,0,1-.45-.49,3.84,3.84,0,0,1-.29-1.68,1.14,1.14,0,0,0-.59-1,2.58,2.58,0,0,0-.79-.34h-1.65v3a.78.78,0,0,1-.78.77.76.76,0,0,1-.77-.77v-8.27a.76.76,0,0,1,.77-.77h2.51a3,3,0,0,1,3,3,3,3,0,0,1-1.09,2.29,2.22,2.22,0,0,1,.49.52,2.67,2.67,0,0,1,.46,1.51,3.62,3.62,0,0,0,.06.83A.76.76,0,0,1,167.77,120.49Zm-2-5.63a1.44,1.44,0,0,0-1.44-1.46h-1.73v2.88h1.73A1.44,1.44,0,0,0,165.81,114.86Z" style="fill:#fff"></path><path d="M170,120.88v-8.27a.76.76,0,0,1,.77-.77h4.58a.78.78,0,0,1,.77.77.79.79,0,0,1-.77.79h-3.79V116h3.26a.79.79,0,0,1,.77.77.78.78,0,0,1-.77.79h-3.26v2.57h3.79a.78.78,0,0,1,0,1.56h-4.53s0,0,0,0l0,0A.77.77,0,0,1,170,120.88Z" style="fill:#fff"></path><path d="M179.88,120.88a.77.77,0,1,1-1.53,0v-8.14h0a.79.79,0,0,1,.31-.65.76.76,0,0,1,1.06.17l4.53,6.26v-5.77A.76.76,0,0,1,185,112a.77.77,0,0,1,.77.76v8.14a.78.78,0,0,1-.77.77.75.75,0,0,1-.57-.28.28.28,0,0,1-.07-.09l-4.48-6.21Z" style="fill:#fff"></path><path d="M195,113.4h-2.22v7.48a.77.77,0,0,1-1.54,0V113.4H189a.79.79,0,0,1-.77-.79.76.76,0,0,1,.77-.77h6a.78.78,0,0,1,.78.77A.8.8,0,0,1,195,113.4Z" style="fill:#fff"></path><g id="freepik--u5Zjqx--inject-111"><path d="M110.42,83l-.29.29-.17.17a4.06,4.06,0,0,0-5.75,0l-.16-.17-.3-.3h0l0,0c.13-.11.25-.23.38-.33a4.45,4.45,0,0,1,.87-.56,4.8,4.8,0,0,1,1.16-.39l.58-.07h.5c.13,0,.27,0,.4,0a4.41,4.41,0,0,1,1.06.25,3.94,3.94,0,0,1,.72.34,4,4,0,0,1,.68.48l.31.28Z" style="fill:#fff"></path><path d="M105.15,84.4c-.15-.16-.31-.31-.47-.47a3.39,3.39,0,0,1,4.8,0l-.47.47a2.67,2.67,0,0,0-1.93-.8A2.7,2.7,0,0,0,105.15,84.4Z" style="fill:#fff"></path><path d="M108.54,84.87l-.47.47a1.35,1.35,0,0,0-1-.41,1.38,1.38,0,0,0-1,.41l-.46-.47A2,2,0,0,1,108.54,84.87Z" style="fill:#fff"></path><path d="M107.51,85.76a.43.43,0,1,1-.85,0,.43.43,0,0,1,.85,0Z" style="fill:#fff"></path></g><path d="M81.34,83.9a1.23,1.23,0,1,1,1.23,1.23A1.23,1.23,0,0,1,81.34,83.9Z" style="fill:#fff"></path><path d="M85.21,83.9a1.23,1.23,0,1,1,1.23,1.23A1.23,1.23,0,0,1,85.21,83.9Z" style="fill:#fff"></path><path d="M89.08,83.9a1.23,1.23,0,1,1,1.23,1.23A1.23,1.23,0,0,1,89.08,83.9Z" style="fill:#fff"></path><path d="M93,83.9a1.23,1.23,0,1,1,1.23,1.23A1.23,1.23,0,0,1,93,83.9Z" style="fill:#fff"></path><path d="M96.82,83.9A1.23,1.23,0,1,1,98,85.13,1.23,1.23,0,0,1,96.82,83.9Z" style="fill:#fff"></path><path d="M240.7,86.59h-10V81.94h10Zm-9.49-.53h9v-3.6h-9Z" style="fill:#fff"></path><rect x="231.53" y="82.73" width="6.45" height="3.06" style="fill:#fff"></rect><rect x="240.7" y="83.02" width="0.89" height="2.48" style="fill:#fff"></rect><rect x="121.56" y="346.47" width="80.75" height="26.87" style="fill:#455a64"></rect><path d="M145,364.16v-9.09a.84.84,0,0,1,.84-.84H148a2.93,2.93,0,0,1,2.93,2.92,2.89,2.89,0,0,1-.59,1.76,3.3,3.3,0,0,1-1.74,6.1h-2.79A.85.85,0,0,1,145,364.16Zm1.71-5.76H148a1.24,1.24,0,0,0,1.22-1.25,1.21,1.21,0,0,0-1.22-1.21h-1.32Zm0,4.9h1.92a1.6,1.6,0,0,0,0-3.19h-1.92Z" style="fill:#fff"></path><path d="M154.7,363.89a3.88,3.88,0,0,1-1.06-2.72,4,4,0,0,1,1.06-2.69,3.58,3.58,0,0,1,2.65-1.17,3.37,3.37,0,0,1,2.57,1.17,3.82,3.82,0,0,1,1.08,2.69,3.72,3.72,0,0,1-1.08,2.72,3.41,3.41,0,0,1-2.57,1.17A3.61,3.61,0,0,1,154.7,363.89Zm.62-2.72a2.51,2.51,0,0,0,.55,1.64,2.1,2.1,0,0,0,1.48.57,2,2,0,0,0,1.42-.57,2.39,2.39,0,0,0,.6-1.64,2.34,2.34,0,0,0-.6-1.6,2.18,2.18,0,0,0-1.42-.58,2.25,2.25,0,0,0-1.48.58A2.46,2.46,0,0,0,155.32,361.17Z" style="fill:#fff"></path><path d="M164.33,363.89a3.88,3.88,0,0,1-1.06-2.72,4,4,0,0,1,1.06-2.69,3.59,3.59,0,0,1,2.65-1.17,3.39,3.39,0,0,1,2.58,1.17,3.86,3.86,0,0,1,1.08,2.69,3.76,3.76,0,0,1-1.08,2.72,3.43,3.43,0,0,1-2.58,1.17A3.63,3.63,0,0,1,164.33,363.89Zm.62-2.72a2.47,2.47,0,0,0,.56,1.64,2.06,2.06,0,0,0,1.47.57,2,2,0,0,0,1.42-.57,2.35,2.35,0,0,0,.6-1.64,2.3,2.3,0,0,0-.6-1.6A2.16,2.16,0,0,0,167,359a2.21,2.21,0,0,0-1.47.58A2.42,2.42,0,0,0,165,361.17Z" style="fill:#fff"></path><path d="M173.26,364.16v-9.09a.84.84,0,0,1,.85-.84.86.86,0,0,1,.86.84v5.33l3.16-3.15a.85.85,0,0,1,1.2,0,.83.83,0,0,1,0,1.2L177,360.76l2.37,2.85a.85.85,0,0,1-.12,1.2.83.83,0,0,1-1.19-.11L175.82,362l-.85.85v1.35a.86.86,0,0,1-.86.85A.84.84,0,0,1,173.26,364.16Z" style="fill:#fff"></path><rect x="98.19" y="195.35" width="127.47" height="127.47" style="fill:#ebebeb"></rect><path d="M117.72,162.08c-.49-4.87-3.84-9.71-9.73-9.71s-9.24,4.84-9.73,9.71c-.73,7.5,4.32,14.32,9.73,20.53C113.4,176.4,118.47,169.58,117.72,162.08Zm-9.73,5.4a5.32,5.32,0,1,1,5.34-5.33A5.32,5.32,0,0,1,108,167.48Z" style="fill:#F38102"></path><rect x="126.72" y="171.61" width="98.94" height="1.56" style="fill:#ebebeb"></rect><rect x="126.72" y="175.9" width="61.99" height="1.56" style="fill:#ebebeb"></rect><rect x="126.72" y="153.56" width="31" height="2.26" style="fill:#F38102"></rect><polygon points="129.84 159.37 130.98 161.08 132.95 161.64 131.69 163.25 131.76 165.3 129.84 164.59 127.91 165.3 127.99 163.25 126.72 161.64 128.69 161.08 129.84 159.37" style="fill:#F38102"></polygon><polygon points="138.65 159.37 139.79 161.08 141.76 161.64 140.5 163.25 140.57 165.3 138.65 164.59 136.72 165.3 136.8 163.25 135.53 161.64 137.51 161.08 138.65 159.37" style="fill:#F38102"></polygon><polygon points="147.46 159.37 148.6 161.08 150.57 161.64 149.31 163.25 149.38 165.3 147.46 164.59 145.53 165.3 145.61 163.25 144.34 161.64 146.32 161.08 147.46 159.37" style="fill:#F38102"></polygon><polygon points="156.27 159.37 157.41 161.08 159.39 161.64 158.12 163.25 158.2 165.3 156.27 164.59 154.34 165.3 154.42 163.25 153.16 161.64 155.13 161.08 156.27 159.37" style="fill:#F38102"></polygon><polygon points="165.08 164.59 165.08 159.37 163.94 161.08 161.97 161.64 163.23 163.25 163.16 165.3 165.08 164.59" style="fill:#F38102"></polygon><path d="M165.08,159.37l1.23,1.65c.42,0,1.52.38,2.17.52l-.15.2-1.23,1.64,0-.14.1,2v.34l-2.25-.8h.17l-2.26.8v-.34l.1-2,0,.14-1.37-1.84.23-.06a17.36,17.36,0,0,1,1.94-.46l1.22-1.65Zm0,0L164,161.13c-.63.28-1.35.43-2,.67l.09-.26,1.3,1.58,0,.06v.08l-.06,2.05-.31-.23,1.92-.72.08,0,.09,0,1.92.72-.31.23-.06-2.05v-.08l0-.06,1.31-1.58.08.26c-.66-.24-1.38-.39-2-.67l-1.06-1.76Z" style="fill:#F38102"></path><path d="M187.85,279.84h34.49s-3.78-16.11-17.25-16.11S188.44,276.25,187.85,279.84Z" style="fill:#F38102"></path><path d="M187.85,279.84h34.49s-3.78-16.11-17.25-16.11S188.44,276.25,187.85,279.84Z" style="opacity:0.2"></path><path d="M95.83,278.11h34.48S126.54,262,113.07,262,96.42,274.51,95.83,278.11Z" style="fill:#F38102"></path><path d="M95.83,278.11h34.48S126.54,262,113.07,262,96.42,274.51,95.83,278.11Z" style="opacity:0.2"></path><path d="M97.05,248.6c-.74,1.18-3.89,14.23-4,14.68s-1.15,2.44-1.17,2.81-.28,6.21-.13,6.59a16,16,0,0,0,1.19,2c.19.23.78,4.43,1.32,4.49a15.42,15.42,0,0,0,2.74,0c.1-.09.68-15.66,16-15.66s15.17,16.53,15.46,16.59,60.87,1.62,60.87,1.62c0-2.53.2-17.59,15.25-17.59a14.73,14.73,0,0,1,14.92,14c.07,2.48-.34,5.21-.2,5.21a15.44,15.44,0,0,0,2.26,0c.26-.11,3.47-2.23,3.74-2.3s1-.12,1.49-.23a30.47,30.47,0,0,0,3.68-3c0-.11.15-1.21.17-1.3s1.07-4,1.22-4.45.21-4,.21-4.38-3.68-9-5-10-10-5.22-12.79-5.73-18.4-2.83-19-3.22S168.19,233.08,163.57,232c-3.73-.9-38.91.34-41.18.46s-15.62,2.15-16,2.34,0,1.85.52,2.15C106.88,236.91,98.33,246.57,97.05,248.6Z" style="fill:#F38102"></path><path d="M200.47,264.56c-10.93,2.49-11.09,14.87-11.09,17.14,0,0-60.59-1.57-60.88-1.62s-.16-10.89-8.26-15a20.49,20.49,0,0,1,10.07,12.53c.19.67,2.13,1.74,19.22,2.28s31.95.21,34.77-.19S190.43,264.51,200.47,264.56Z" style="opacity:0.1"></path><path d="M107.9,247.56c.74,2.18,82.13,6.25,82.62,5.2.36-.79-7.65-7.21-11.38-9.31s-14.43-8.15-19.7-8.77-15.94-.57-25.24-.4-12,.4-15.88,2C114.94,237.76,107.31,245.82,107.9,247.56Z" style="fill:#263238"></path><path d="M110.39,246.28c.23.82,11.92,2.55,35.07,3.62s34.58,1.65,34.87,1.54-.79-6.29-1.19-6.8-17-9-19.59-9.22-16.66-.1-23.77-.14c-8.8-.06-13.84,1-16.36,2C117.21,238.15,110.17,245.46,110.39,246.28Z" style="fill:#37474f"></path><g style="opacity:0.1"><path d="M132.05,235.32,119.37,248c-2.86-.32-5-.64-6.54-.93l11-11A59.54,59.54,0,0,1,132.05,235.32Z" style="fill:#fff"></path><path d="M180.33,251.44c-.12,0-2.32,0-6.65-.23l5.74-5.74C179.9,247.28,180.56,251.34,180.33,251.44Z" style="fill:#fff"></path><path d="M142.31,235.28l-13.6,13.6-3-.25-.41,0,13.31-13.31Z" style="fill:#fff"></path><path d="M173.93,241.81l-9,9-3.57-.16,10.09-10.09C172.31,241,173.15,241.4,173.93,241.81Z" style="fill:#fff"></path><path d="M120.79,236.78,111,246.61c-.35-.12-.54-.23-.57-.32a.35.35,0,0,1,0-.19l8.69-8.69a1.44,1.44,0,0,1,.31-.15C119.81,237.1,120.27,236.94,120.79,236.78Z" style="fill:#fff"></path><path d="M176.08,242.92l-8,8-1-.05,8.36-8.36Z" style="fill:#fff"></path><path d="M162.27,236.3,148.53,250l1,.05L163,236.61Z" style="fill:#fff"></path></g><path d="M135,235.63c.14.45.38,13.6.38,14s-.48.53-.48.53l7.47.34s-.48-.13-.57-.36-2.43-14.4-2.42-14.59.39-.36.39-.36h-5.21A.79.79,0,0,1,135,235.63Z" style="fill:#263238"></path><path d="M214.82,256.14c.56,1.42,5.81,4.57,7.85,5.25,1.29.43,5.81,1.42,6.11,1.2s-1.41-3.76-2.43-4.71-6.42-3.83-8.16-4S214.25,254.71,214.82,256.14Z" style="fill:#fff"></path><path d="M228.78,262.59c-.3.22-4.82-.77-6.11-1.2-2-.68-7.29-3.83-7.85-5.25s1.64-2.44,3.37-2.27a3.38,3.38,0,0,1,.4.07c-1.69.39-2.22,1.66-1.36,2.56a26.63,26.63,0,0,0,4.93,3.71c1.15.53,5.54,2,6,1.69a.89.89,0,0,0,.28-.66C228.72,262,228.9,262.51,228.78,262.59Z" style="fill:#ebebeb"></path><g style="opacity:0.2"><path d="M138.7,251.48l-.51,3.62-.22,1.82c0,.3-.07.6-.09.91s0,.61,0,.91l.06,7.32.06,3.65,0,1.83,0,.91.07.91.28,3.65.31,3.64-.19-3.65-.21-3.65-.05-.91v-.91l0-1.83,0-3.65-.13-7.3c0-.3,0-.61,0-.91s0-.61.08-.91l.18-1.81Z"></path><path d="M188.48,260.43c0,2.46-.07,4.92-.13,7.38,0,.61,0,1.23-.07,1.84a7.79,7.79,0,0,1-.31,1.82c-.29,1.19-.62,2.36-1,3.52a28.74,28.74,0,0,1-1.27,3.39l-.19.4c-.07.13-.15.26-.23.39a2.45,2.45,0,0,1-.24.38l-.13.18a.42.42,0,0,1-.23.08c-.54.07-1.07.07-1.6.1-4.25.1-8.5,0-12.75,0s-8.51-.11-12.76-.2-8.5-.22-12.74-.41c-2.12-.1-4.16-.09-6.28-.31v-.19c2.11.21,4.16.2,6.28.29,4.25.17,8.5.28,12.75.37s8.5.18,12.75.24,8.5.1,12.75,0c.53,0,1.06,0,1.58-.09l.15,0,.13-.18a3.17,3.17,0,0,0,.23-.36l.22-.38.19-.4a27.18,27.18,0,0,0,1.27-3.37c.37-1.15.71-2.32,1-3.5a7.72,7.72,0,0,0,.31-1.79l.07-1.84c.08-2.45.15-4.91.19-7.37v-.92a3.57,3.57,0,0,0,0-.46l-.07-.45-.25-1.82-.5-3.65.53,3.64.26,1.82.07.46a3.41,3.41,0,0,1,0,.46Z"></path><path d="M219.08,259.39a15.45,15.45,0,0,1-2,1.46c-.7.46-1.42.89-2.13,1.32s-1.45.85-2.18,1.25-1.46.81-2.21,1.18c.69-.47,1.4-.91,2.11-1.35l2.15-1.3,2.16-1.26,1.08-.64A10.44,10.44,0,0,0,219.08,259.39Z"></path><polygon points="137.86 267.46 144.66 267.63 151.44 267.82 165.02 268.2 178.6 268.63 185.39 268.85 192.18 269.1 185.39 268.93 178.6 268.74 165.02 268.36 151.44 267.93 144.65 267.71 137.86 267.46"></polygon></g><circle cx="112.77" cy="278.86" r="14.26" transform="translate(-181.25 342.38) rotate(-80.17)" style="fill:#263238"></circle><circle cx="112.77" cy="278.86" r="10.41" style="fill:#dbdbdb"></circle><circle cx="112.77" cy="278.86" r="9.6" style="fill:#a6a6a6"></circle><path d="M114.28,276.45h-3c1-1.47-2.53-6.6-2.53-6.6l1.59-.53c1.05,1.81,1.58,2.35,2.45,2.35s1.4-.54,2.45-2.35l1.59.53S113.26,275,114.28,276.45Z" style="fill:#dbdbdb"></path><path d="M111,276.64l-.93,2.87c-1.09-1.43-7.06.36-7.06.36l0-1.67c2-.44,2.72-.78,3-1.61s-.08-1.49-1.47-3.06l1-1.34S109.3,277.15,111,276.64Z" style="fill:#dbdbdb"></path><path d="M110.17,279.8l2.44,1.78c-1.68.59-1.83,6.82-1.83,6.82l-1.6-.5c.22-2.09.1-2.82-.6-3.34s-1.44-.39-3.36.46l-1-1.36S110.13,281.59,110.17,279.8Z" style="fill:#dbdbdb"></path><path d="M112.93,281.58l2.44-1.78c0,1.79,5.92,3.86,5.92,3.86l-1,1.36c-1.92-.85-2.66-1-3.36-.46s-.82,1.25-.61,3.34l-1.59.5S114.61,282.17,112.93,281.58Z" style="fill:#dbdbdb"></path><path d="M115.46,279.51l-.93-2.87c1.71.51,5.5-4.45,5.5-4.45l1,1.35c-1.4,1.56-1.74,2.23-1.47,3s.94,1.17,3,1.61l0,1.67S116.55,278.08,115.46,279.51Z" style="fill:#dbdbdb"></path><path d="M115.56,278.8a2.79,2.79,0,1,1-2.79-2.79A2.78,2.78,0,0,1,115.56,278.8Z" style="fill:#dbdbdb"></path><circle cx="204.51" cy="278.86" r="14.26" transform="translate(-137.29 226.29) rotate(-45)" style="fill:#263238"></circle><circle cx="204.51" cy="278.86" r="10.41" style="fill:#dbdbdb"></circle><circle cx="204.51" cy="278.86" r="9.6" style="fill:#a6a6a6"></circle><path d="M206,276.45h-3c1-1.47-2.53-6.6-2.53-6.6l1.59-.53c1.05,1.81,1.58,2.35,2.45,2.35s1.39-.54,2.45-2.35l1.59.53S205,275,206,276.45Z" style="fill:#dbdbdb"></path><path d="M202.75,276.64l-.93,2.87c-1.09-1.43-7.06.36-7.06.36l0-1.67c2-.44,2.72-.78,3-1.61s-.08-1.49-1.47-3.06l1-1.34S201,277.15,202.75,276.64Z" style="fill:#dbdbdb"></path><path d="M201.91,279.8l2.44,1.78c-1.69.59-1.83,6.82-1.83,6.82l-1.6-.5c.21-2.09.1-2.82-.6-3.34s-1.44-.39-3.37.46l-1-1.36S201.87,281.59,201.91,279.8Z" style="fill:#dbdbdb"></path><path d="M204.66,281.58l2.44-1.78c.05,1.79,5.93,3.86,5.93,3.86l-1,1.36c-1.92-.85-2.66-1-3.36-.46s-.82,1.25-.61,3.34l-1.59.5S206.35,282.17,204.66,281.58Z" style="fill:#dbdbdb"></path><path d="M207.2,279.51l-.93-2.87c1.71.51,5.49-4.45,5.49-4.45l1,1.35c-1.4,1.56-1.74,2.23-1.47,3s.94,1.17,3,1.61l0,1.67S208.28,278.08,207.2,279.51Z" style="fill:#dbdbdb"></path><path d="M207.3,278.8a2.79,2.79,0,1,1-2.79-2.79A2.78,2.78,0,0,1,207.3,278.8Z" style="fill:#dbdbdb"></path><path d="M177.05,246.11c-.52.52-.47,5.17-.09,5.55s5.55.72,6-2.17S177.86,245.3,177.05,246.11Z" style="fill:#F38102"></path><path d="M195.92,248.89h-4.21c-10.94-7.22-26-14.36-26-14.36l2.49-.6c9.09,4.4,26.63,14.47,27.09,14.79A2.3,2.3,0,0,0,195.92,248.89Z" style="fill:#37474f"></path><g style="opacity:0.5"><path d="M96.27,269.55a18.61,18.61,0,0,1,3.2-3.93,20.48,20.48,0,0,1,4.11-3,19.86,19.86,0,0,1,9.81-2.41l1.27.06.64,0,.63.08,1.27.18,1.24.3a15.65,15.65,0,0,1,4.68,2,16.52,16.52,0,0,1,3.78,3.39,22.32,22.32,0,0,1,2.68,4.31,24,24,0,0,0-2.8-4.2,16.46,16.46,0,0,0-3.8-3.27,18.34,18.34,0,0,0-9.6-2.54,20,20,0,0,0-13.8,5.18A19.13,19.13,0,0,0,96.27,269.55Z" style="fill:#fff"></path><path d="M187.7,269.55a18,18,0,0,1,3.2-3.93,20.14,20.14,0,0,1,4.1-3,19.86,19.86,0,0,1,9.81-2.41l1.28.06.64,0,.63.08,1.26.18c.42.09.83.2,1.25.3a15.59,15.59,0,0,1,4.67,2,16.36,16.36,0,0,1,3.79,3.39,22.32,22.32,0,0,1,2.68,4.31,23.49,23.49,0,0,0-2.81-4.2,16.21,16.21,0,0,0-3.79-3.27,18.36,18.36,0,0,0-9.6-2.54,20.45,20.45,0,0,0-5,.53,20.2,20.2,0,0,0-8.81,4.65A19.13,19.13,0,0,0,187.7,269.55Z" style="fill:#fff"></path><path d="M101.32,245.88c2.22-1.75,4.48-3.45,6.75-5.12s4.56-3.33,6.92-4.89c.3-.19.6-.38.91-.56l.47-.26a3,3,0,0,1,.52-.19c.69-.21,1.37-.38,2.06-.55,1.37-.34,2.75-.66,4.13-.93a25.08,25.08,0,0,1,4.23-.44c1.41,0,2.82,0,4.24,0-1.42,0-2.83,0-4.23.13a25.27,25.27,0,0,0-4.18.52c-1.38.31-2.75.63-4.12,1-.68.18-1.36.35-2,.56a2.41,2.41,0,0,0-.47.18,5.05,5.05,0,0,0-.45.25c-.3.17-.6.36-.89.55-2.37,1.53-4.65,3.19-7,4.82Z" style="fill:#fff"></path></g><path d="M230.92,275.63c-.13.51-.23.87-.23.9s-.12,1.19-.18,1.3a29.56,29.56,0,0,1-3.67,3c-.42.1-1.11.14-1.43.21h-.07c-.15,0-1.23.73-2.19,1.34l-.31.2-.16.1-.28.18h0l-.26.16-.11.07-.42.25a15.57,15.57,0,0,1-2.27,0h0a.19.19,0,0,1,0-.08c0-.16,0-.5.05-1l0-.24c0-.09,0-.18,0-.28a2.64,2.64,0,0,1,0-.28c0-.05,0-.11,0-.16,0-.21,0-.42,0-.63,0,0,0,0,0,0a23.49,23.49,0,0,0,.06-2.54c0-.14,0-.28,0-.43l0-.39c0-.11,0-.23,0-.34a2,2,0,0,0,0-.26c0-.32-.1-.64-.17-1,0-.08,0-.15-.05-.23s-.07-.27-.1-.4l-.09-.3-.18-.59-.12-.32c-.11-.32-.24-.64-.39-1,0-.09-.08-.18-.12-.27a4.25,4.25,0,0,0-.21-.43l-.08-.17-.19-.35-.24-.42-.26-.42-.25-.38,0,0-.26-.37-.05-.06a3.55,3.55,0,0,0-.23-.31.39.39,0,0,0-.08-.1c-.09-.12-.18-.24-.28-.35s-.42-.49-.65-.73l-.06-.06-.26-.27-.11-.1-.32-.3,0,0-.38-.33-.35-.29-.06,0-.33-.25-.15-.11,0,0-.33-.22a3.74,3.74,0,0,0-.42-.27l-.06,0-.43-.26-.47-.25h0c2.82.6,7.51,4.44,9.41,8.4s1.41,4.26,1.85,4.73,1.91-.48,2.59-.65,2.89-.23,3.74-.4,1-1.7,1.57-2A.67.67,0,0,0,230.92,275.63Z" style="opacity:0.1"></path><path d="M109.68,253.78v.07a3.08,3.08,0,0,1-.88,2.12,3.09,3.09,0,1,1-4.37-4.37,3.1,3.1,0,0,1,2.22-.88,3.11,3.11,0,0,1,3,3.06Z" style="opacity:0.30000000000000004"></path><path d="M101.37,256.78a1.88,1.88,0,0,1-1.45-.9,3.71,3.71,0,0,1-.58-2.06,3.6,3.6,0,0,1,.59-2.07,1.85,1.85,0,0,1,1.44-.9,1.8,1.8,0,0,1,1.49.84,3.49,3.49,0,0,1,.58,1.48,3.79,3.79,0,0,0-.56-1.51,1.92,1.92,0,0,0-1.51-.94,1.87,1.87,0,0,0-1.55.88,4,4,0,0,0,0,4.43,1.89,1.89,0,0,0,1.55.88,2,2,0,0,0,1.51-.94,3.76,3.76,0,0,0,.6-1.86,3.6,3.6,0,0,1-.62,1.83A1.8,1.8,0,0,1,101.37,256.78Zm2.07-3.61c0,.12,0,.23,0,.35C103.47,253.4,103.45,253.29,103.44,253.17Z" style="opacity:0.30000000000000004"></path><path d="M103.49,253.82c0,.09,0,.19,0,.29a3.6,3.6,0,0,1-.62,1.83,1.8,1.8,0,0,1-1.49.84,1.88,1.88,0,0,1-1.45-.9,3.71,3.71,0,0,1-.58-2.06,3.6,3.6,0,0,1,.59-2.07,1.85,1.85,0,0,1,1.44-.9,1.8,1.8,0,0,1,1.49.84,3.6,3.6,0,0,1,.62,1.83C103.49,253.62,103.49,253.72,103.49,253.82Z" style="opacity:0.30000000000000004"></path><path d="M108.46,253.78v0a1.89,1.89,0,0,1-.54,1.32,1.92,1.92,0,0,1-2.73,0,1.93,1.93,0,0,1,0-2.76,1.92,1.92,0,0,1,2.73,0A1.89,1.89,0,0,1,108.46,253.78Z" style="fill:#263238"></path><path d="M94.54,257a6,6,0,0,1,.58,1.61c-.05.36-.49,4.16-.76,4.33a2.18,2.18,0,0,1-1.4.41C92.44,263.29,94.54,257,94.54,257Z" style="fill:#ebebeb"></path><path d="M106.88,236.91s-4.39,5.44-4.68,5.89-3.71,5-3.71,5l-1,.19,6.09-8Z" style="fill:#37474f"></path><path d="M146.17,257.84h-.89a2.1,2.1,0,0,1-2.1-2.1h0a2.1,2.1,0,0,1,2.1-2.1h.89a2.1,2.1,0,0,1,2.1,2.1h0A2.1,2.1,0,0,1,146.17,257.84Z" style="opacity:0.30000000000000004"></path><path d="M148.74,256.6H142a.71.71,0,0,1-.71-.72h0a.71.71,0,0,1,.71-.71h6.72a.71.71,0,0,1,.72.71h0A.72.72,0,0,1,148.74,256.6Z" style="fill:#F38102"></path><path d="M148.74,256.6H142a.71.71,0,0,1-.71-.72h0a.71.71,0,0,1,.71-.71h6.72a.71.71,0,0,1,.72.71h0A.72.72,0,0,1,148.74,256.6Z" style="opacity:0.1"></path><rect x="112.46" y="389.92" width="98.94" height="1.56" style="fill:#ebebeb"></rect><rect x="126.45" y="398.49" width="70.95" height="1.56" style="fill:#ebebeb"></rect><rect x="130.93" y="394.2" width="61.99" height="1.56" style="fill:#ebebeb"></rect></g><g id="freepik--Car--inject-111"><path d="M301.18,400.48H161.08s15.35-65.45,70-65.45S298.77,385.86,301.18,400.48Z" style="fill:#F38102"></path><path d="M301.18,400.48H161.08s15.35-65.45,70-65.45S298.77,385.86,301.18,400.48Z" style="opacity:0.2"></path><path d="M675,393.41H534.92S550.26,328,605,328,672.6,378.8,675,393.41Z" style="fill:#F38102"></path><path d="M675,393.41H534.92S550.26,328,605,328,672.6,378.8,675,393.41Z" style="opacity:0.2"></path><path d="M670.05,273.57c3,4.77,15.8,57.79,16.1,59.63s4.68,9.89,4.75,11.42,1.15,25.22.54,26.75a65.14,65.14,0,0,1-4.83,8.05c-.76.92-3.15,18-5.37,18.24s-10.75.38-11.14,0S667.34,334,605,334s-61.62,67.15-62.77,67.38S295,408,295,408c0-10.27-.81-71.44-61.93-71.44-39.82,0-59.94,32.83-60.63,57-.29,10.08,1.4,21.15.84,21.15-1.84,0-8.12.46-9.19,0s-14.11-9-15.18-9.35-4.22-.46-6.06-.92-14.71-11.72-14.94-12.18-.62-4.91-.69-5.29-4.37-16.33-5-18.09-.84-16.33-.84-17.78,14.95-36.58,20.47-40.72,40.47-21.21,52-23.28,74.73-11.5,77-13.11S381,210.52,399.8,206c15.18-3.68,158.09,1.38,167.29,1.84s63.46,8.77,65.15,9.53,0,7.51-2.15,8.74C630.09,226.08,664.83,265.29,670.05,273.57Z" style="fill:#F38102"></path><path d="M249.9,338.37c44.4,10.15,45,60.42,45,69.64,0,0,246.16-6.36,247.31-6.6.93-.19.65-44.21,33.56-61-14.78,7.31-33.73,25-40.9,50.88-.78,2.75-8.64,7.08-78.08,9.29s-129.78.81-141.23-.79S290.71,338.19,249.9,338.37Z" style="opacity:0.1"></path><path d="M626,269.31c-3,8.86-333.63,25.42-335.62,21.12-1.48-3.17,31-29.28,46.22-37.78s58.63-33.11,80-35.64,64.76-2.31,102.55-1.61c37.48.69,48.87,1.61,64.51,8.27C597.36,229.52,628.35,262.27,626,269.31Z" style="fill:#263238"></path><path d="M615.84,264.15c-.92,3.32-48.42,10.32-142.46,14.69s-140.49,6.69-141.64,6.23,3.22-25.52,4.83-27.59,69-36.56,79.56-37.48,67.71-.39,96.57-.58c35.75-.22,56.23,3.91,66.46,8.05C588.16,231.11,616.76,260.81,615.84,264.15Z" style="fill:#37474f"></path><g style="opacity:0.1"><path d="M527.86,219.61l51.51,51.51c11.63-1.32,20.48-2.62,26.56-3.79l-44.61-44.6A236.07,236.07,0,0,0,527.86,219.61Z" style="fill:#fff"></path><path d="M331.74,285.07c.49.2,9.43-.12,27-.9l-23.32-23.33C333.49,268.2,330.81,284.7,331.74,285.07Z" style="fill:#fff"></path><path d="M486.17,219.45l55.24,55.24,12.33-1,1.67-.14-54.07-54.07C496.59,219.46,491.47,219.46,486.17,219.45Z" style="fill:#fff"></path><path d="M357.71,246l36.59,36.59,14.5-.68-41-41C364.29,242.61,360.9,244.31,357.71,246Z" style="fill:#fff"></path><path d="M573.6,225.55l39.92,39.93c1.43-.49,2.21-.93,2.32-1.33a1.34,1.34,0,0,0-.11-.76l-35.3-35.31a11,11,0,0,0-1.27-.61C577.57,226.82,575.71,226.18,573.6,225.55Z" style="fill:#fff"></path><path d="M349,250.46l32.64,32.67,4.12-.2-33.94-34Z" style="fill:#fff"></path><path d="M405.1,223.58l55.82,55.84-4.12.19L402,224.85Z" style="fill:#fff"></path></g><path d="M515.74,220.88c-.58,1.81-1.52,55.22-1.52,56.95s1.95,2.13,1.95,2.13l-30.36,1.41s2-.55,2.31-1.47S498,221.38,498,220.63s-1.55-1.46-1.55-1.46h21.15A3.21,3.21,0,0,0,515.74,220.88Z" style="fill:#263238"></path><path d="M191.63,304.19c-2.3,5.76-23.63,18.55-31.92,21.31-5.21,1.74-23.58,5.76-24.81,4.9s5.74-15.28,9.89-19.16,26.07-15.55,33.12-16.26S194,298.38,191.63,304.19Z" style="fill:#fff"></path><path d="M134.9,330.4c1.23.86,19.6-3.16,24.82-4.9,8.27-2.76,29.61-15.55,31.92-21.32S185,294.27,177.91,295a15.38,15.38,0,0,0-1.62.28c6.89,1.56,9,6.74,5.53,10.41s-15.15,12.77-20,15c-4.68,2.19-22.5,7.94-24.27,6.86a3.52,3.52,0,0,1-1.11-2.66C135.15,327.8,134.43,330.08,134.9,330.4Z" style="fill:#ebebeb"></path><g style="opacity:0.2"><path d="M500.85,285.26l2.08,14.7.9,7.37c.13,1.24.27,2.47.36,3.71s0,2.48,0,3.72l-.27,29.7-.24,14.85-.12,7.43-.06,3.71-.29,3.7L502.11,389l-1.26,14.79.75-14.82.86-14.81.21-3.71,0-3.71.08-7.41.14-14.84.51-29.67c0-1.23.11-2.48,0-3.7s-.18-2.45-.29-3.68l-.75-7.38Z"></path><path d="M298.61,321.61q.12,15,.56,30c.06,2.5.15,5,.26,7.49a33.1,33.1,0,0,0,1.24,7.39c1.19,4.81,2.55,9.56,4,14.27a115.64,115.64,0,0,0,5.17,13.78l.79,1.65c.29.53.61,1.06.9,1.58a12.07,12.07,0,0,0,1,1.53l.53.73a1.83,1.83,0,0,0,.95.34c2.18.26,4.33.29,6.49.38,17.28.4,34.55.22,51.81.09s34.54-.44,51.81-.8,34.53-.92,51.78-1.66c8.59-.4,16.91-.36,25.49-1.26v-.77c-8.56.86-16.91.79-25.51,1.17-17.25.69-34.51,1.11-51.79,1.48s-34.52.76-51.78,1-34.53.44-51.8.09c-2.15-.07-4.32-.11-6.43-.36-.24,0-.56-.11-.61-.12l-.5-.71a12.39,12.39,0,0,1-1-1.47c-.29-.52-.59-1-.88-1.55l-.78-1.62a117.48,117.48,0,0,1-5.18-13.68c-1.48-4.68-2.85-9.42-4-14.21A31.52,31.52,0,0,1,299.9,359l-.3-7.47c-.34-10-.63-20-.77-30,0-1.25,0-2.5,0-3.75A14.32,14.32,0,0,1,299,316l.26-1.86,1-7.39L302.33,292l-2.16,14.79-1.08,7.39-.26,1.85a11.63,11.63,0,0,0-.2,1.87C298.6,319.11,298.61,320.36,298.61,321.61Z"></path><path d="M174.3,317.38a66.23,66.23,0,0,0,8.29,5.94c2.86,1.85,5.77,3.59,8.67,5.37s5.87,3.43,8.84,5.07,6,3.27,9,4.79c-2.83-1.89-5.71-3.69-8.6-5.48l-8.71-5.28L183,322.65l-4.39-2.57A42.62,42.62,0,0,1,174.3,317.38Z"></path><polygon points="504.24 350.18 476.65 350.85 449.07 351.61 393.91 353.16 338.75 354.93 311.18 355.81 283.6 356.81 311.19 356.14 338.77 355.38 393.93 353.83 449.09 352.06 476.67 351.17 504.24 350.18"></polygon></g><circle cx="606.18" cy="396.49" r="57.94" style="fill:#263238"></circle><circle cx="606.18" cy="396.49" r="42.31" transform="matrix(0.99, -0.16, 0.16, 0.99, -55.06, 100.82)" style="fill:#dbdbdb"></circle><circle cx="606.18" cy="396.49" r="39.01" style="fill:#a6a6a6"></circle><path d="M600.06,386.71h12.25c-4.14-6,10.27-26.82,10.27-26.82l-6.44-2.15c-4.29,7.35-6.43,9.51-10,9.51s-5.67-2.16-10-9.51l-6.43,2.15S604.19,380.73,600.06,386.71Z" style="fill:#dbdbdb"></path><path d="M613.33,387.45l3.79,11.66c4.4-5.78,28.68,1.48,28.68,1.48l.06-6.79c-8.32-1.81-11-3.18-12.13-6.53s.3-6.06,6-12.43l-4-5.44S620.29,389.54,613.33,387.45Z" style="fill:#dbdbdb"></path><path d="M616.73,400.31l-9.91,7.2c6.85,2.41,7.44,27.74,7.44,27.74l6.49-2.05c-.86-8.47-.39-11.47,2.46-13.55s5.85-1.58,13.66,1.84L640.8,416S616.9,407.58,616.73,400.31Z" style="fill:#dbdbdb"></path><path d="M605.55,407.51l-9.91-7.2c-.17,7.27-24.08,15.66-24.08,15.66l4,5.53c7.79-3.43,10.79-3.92,13.65-1.85s3.31,5.08,2.47,13.56l6.47,2S598.69,409.92,605.55,407.51Z" style="fill:#dbdbdb"></path><path d="M595.25,399.11,599,387.45c-7,2.09-22.33-18.05-22.33-18.05l-4,5.46c5.67,6.35,7.06,9.05,6,12.41s-3.8,4.72-12.13,6.54l.07,6.78S590.84,393.33,595.25,399.11Z" style="fill:#dbdbdb"></path><path d="M594.86,396.22a11.33,11.33,0,1,0,11.32-11.33A11.32,11.32,0,0,0,594.86,396.22Z" style="fill:#dbdbdb"></path><circle cx="233.51" cy="396.49" r="57.94" style="fill:#263238"></circle><circle cx="233.51" cy="396.49" r="42.31" transform="translate(-37.13 24.36) rotate(-5.53)" style="fill:#dbdbdb"></circle><circle cx="233.51" cy="396.49" r="39.01" style="fill:#a6a6a6"></circle><path d="M227.38,386.71h12.25c-4.13-6,10.28-26.82,10.28-26.82l-6.44-2.15c-4.29,7.35-6.44,9.51-10,9.51s-5.67-2.16-10-9.51l-6.43,2.15S231.52,380.73,227.38,386.71Z" style="fill:#dbdbdb"></path><path d="M240.66,387.45l3.79,11.66c4.4-5.78,28.67,1.48,28.67,1.48l.06-6.79c-8.32-1.81-11-3.18-12.12-6.53s.3-6.06,6-12.43l-4-5.44S247.62,389.54,240.66,387.45Z" style="fill:#dbdbdb"></path><path d="M244.05,400.31l-9.91,7.2c6.86,2.41,7.45,27.74,7.45,27.74l6.48-2.05c-.85-8.47-.39-11.47,2.46-13.55s5.86-1.58,13.66,1.84l3.94-5.52S244.22,407.58,244.05,400.31Z" style="fill:#dbdbdb"></path><path d="M232.87,407.51l-9.91-7.2c-.16,7.27-24.07,15.66-24.07,15.66l3.94,5.53c7.8-3.43,10.8-3.92,13.65-1.85s3.32,5.08,2.48,13.56l6.47,2S226,409.92,232.87,407.51Z" style="fill:#dbdbdb"></path><path d="M222.57,399.11l3.79-11.66c-7,2.09-22.33-18.05-22.33-18.05l-4,5.46c5.67,6.35,7.06,9.05,6,12.41s-3.81,4.72-12.13,6.54l.06,6.78S218.17,393.33,222.57,399.11Z" style="fill:#dbdbdb"></path><path d="M222.18,396.22a11.33,11.33,0,1,0,11.33-11.33A11.32,11.32,0,0,0,222.18,396.22Z" style="fill:#dbdbdb"></path><path d="M345,263.45c2.11,2.11,1.92,21,.39,22.54s-22.54,2.91-24.22-8.82S341.75,260.16,345,263.45Z" style="fill:#F38102"></path><path d="M268.4,274.74h17.08C329.94,245.41,391,216.39,391,216.39L380.83,214c-36.93,17.88-108.15,58.77-110,60.08A10.15,10.15,0,0,1,268.4,274.74Z" style="fill:#37474f"></path><g style="opacity:0.5"><path d="M673.2,358.65a74.27,74.27,0,0,0-13-15.95,82.21,82.21,0,0,0-16.69-12.16,81,81,0,0,0-39.85-9.8l-5.18.24-2.59.13c-.85.09-1.71.23-2.57.35l-5.13.73c-1.69.35-3.37.8-5.05,1.2a63.82,63.82,0,0,0-19,8.15,66.15,66.15,0,0,0-15.38,13.76,92.38,92.38,0,0,0-10.87,17.49c3.37-6,6.85-11.93,11.39-17.06a66,66,0,0,1,15.43-13.29c11.61-7.24,25.39-10.19,39-10.32A83.29,83.29,0,0,1,624,324.3,80.61,80.61,0,0,1,643,331.48a81.49,81.49,0,0,1,16.74,11.71A77.47,77.47,0,0,1,673.2,358.65Z" style="fill:#fff"></path><path d="M301.8,358.65a74.57,74.57,0,0,0-13-15.95,82.77,82.77,0,0,0-16.69-12.16,81.08,81.08,0,0,0-39.85-9.8l-5.18.24-2.59.13c-.86.09-1.72.23-2.57.35l-5.14.73c-1.69.35-3.37.8-5,1.2a63.65,63.65,0,0,0-19,8.15,66.2,66.2,0,0,0-15.39,13.76,91.83,91.83,0,0,0-10.86,17.49c3.36-6,6.84-11.93,11.38-17.06a66,66,0,0,1,15.43-13.29c11.61-7.24,25.4-10.19,39-10.32a83.26,83.26,0,0,1,20.26,2.18,80.44,80.44,0,0,1,19.07,7.18,81.49,81.49,0,0,1,16.74,11.71A77.84,77.84,0,0,1,301.8,358.65Z" style="fill:#fff"></path><path d="M652.7,262.49c-9-7.08-18.19-14-27.41-20.8s-18.55-13.51-28.13-19.86c-1.22-.77-2.44-1.54-3.69-2.27-.63-.37-1.27-.72-1.93-1.05a12.37,12.37,0,0,0-2.11-.79c-2.78-.82-5.56-1.52-8.34-2.22-5.58-1.37-11.17-2.69-16.81-3.79A99.08,99.08,0,0,0,547.12,210c-5.74-.12-11.48-.11-17.21.16,5.73,0,11.47.16,17.18.52a98.55,98.55,0,0,1,17,2.12c5.58,1.26,11.16,2.55,16.71,4,2.77.72,5.55,1.44,8.26,2.26a10.81,10.81,0,0,1,1.91.73c.61.31,1.23.65,1.83,1,1.22.72,2.43,1.49,3.63,2.26,9.59,6.22,18.89,12.95,28.25,19.56Z" style="fill:#fff"></path></g><path d="M126.2,383.36c.55,2.07.94,3.53,1,3.65.08.38.47,4.82.7,5.28S141,404,142.8,404.49c1.69.41,4.51.58,5.78.85h.06l.21,0h0c.63.19,5,3,8.91,5.45l1.27.81.63.41c.4.24.79.49,1.15.72h0l1,.64.48.31c.88.54,1.49.9,1.7,1,1.06.47,7.36,0,9.2,0h0l0,0a.78.78,0,0,0,.05-.32c0-.62-.07-2-.22-3.91,0-.31-.06-.64-.09-1s-.06-.76-.09-1.16-.06-.75-.08-1.14c0-.21,0-.44-.05-.67-.07-.81-.13-1.67-.18-2.55a0,0,0,0,1,0-.05c-.21-3.23-.34-6.83-.24-10.33,0-.57,0-1.15.09-1.74s.07-1.06.13-1.6.09-.92.15-1.37l.15-1.08c.18-1.29.43-2.59.72-3.9.06-.31.13-.61.21-.92.13-.54.27-1.08.4-1.62s.23-.82.36-1.23c.22-.81.48-1.6.75-2.4.14-.42.29-.85.45-1.27.47-1.32,1-2.64,1.58-4,.16-.36.33-.72.49-1.09.28-.6.57-1.19.87-1.78.11-.22.22-.43.33-.66.25-.48.52-1,.78-1.45s.64-1.14,1-1.71.68-1.13,1-1.69.66-1,1-1.53a1.13,1.13,0,0,0,.1-.13l1-1.5a2,2,0,0,1,.2-.26c.31-.43.62-.84.94-1.24a4.63,4.63,0,0,1,.32-.42l1.15-1.43c.85-1,1.72-2,2.64-2.94a3.13,3.13,0,0,1,.25-.26c.35-.37.7-.72,1.07-1.08.14-.14.27-.28.42-.41.43-.41.87-.83,1.31-1.23l.1-.08c.5-.46,1-.9,1.52-1.34l1.43-1.16.24-.18c.44-.35.89-.69,1.36-1,.19-.15.4-.29.61-.44l.14-.11c.44-.3.88-.62,1.33-.91s1.12-.74,1.7-1.1a2.2,2.2,0,0,1,.26-.15c.57-.36,1.16-.7,1.75-1s1.26-.69,1.9-1l0,0c-11.44,2.43-30.51,18-38.21,34.14s-5.73,17.29-7.53,19.23-7.76-2-10.52-2.68-11.73-.91-15.18-1.6-4-6.9-6.38-8.28A3.39,3.39,0,0,1,126.2,383.36Z" style="opacity:0.1"></path><path d="M618.75,294.61A12.32,12.32,0,1,0,640,286.23a12.35,12.35,0,0,0-21.22,8.38Zm0,0c0-11.23,13.85-16.91,21.83-9A13,13,0,0,1,640.4,304c-8.15,7.76-21.85,1.83-21.65-9.41Z" style="opacity:0.30000000000000004"></path><path d="M643.93,293.53c0-.47.1-.93.17-1.39C644,292.6,644,293.06,643.93,293.53Z" style="opacity:0.30000000000000004"></path><path d="M680.23,307.8s-2.53,5.08-2.34,6.54,2,16.88,3.08,17.61,3.55,2,5.68,1.65S680.23,307.8,680.23,307.8Z" style="fill:#ebebeb"></path><path d="M630.09,226.08s17.84,22.09,19,23.9,15.07,20.2,15.07,20.2l4,.79-24.74-32.42Z" style="fill:#37474f"></path><rect x="461.96" y="294.01" width="20.67" height="17.06" rx="7.07" transform="translate(944.6 605.08) rotate(180)" style="opacity:0.30000000000000004"></rect><rect x="457.15" y="300.23" width="33.11" height="5.82" rx="1" transform="translate(947.41 606.29) rotate(180)" style="fill:#F38102"></rect><rect x="457.15" y="300.23" width="33.11" height="5.82" rx="1" transform="translate(947.41 606.29) rotate(180)" style="opacity:0.1"></rect></g><g id="freepik--Locator--inject-111"><path d="M414.16,75.18c-1.8-18-14.19-35.83-35.93-35.83s-34.08,17.86-35.88,35.83c-2.54,25.92,10.94,54,29.36,75.75h6.52C398.22,128,416.93,102.88,414.16,75.18ZM378.23,95.12A19.65,19.65,0,1,1,398,75.45,19.62,19.62,0,0,1,378.23,95.12Z" style="fill:#F38102"></path><path d="M414.16,75.18c-1.8-18-14.19-35.83-35.93-35.83s-34.08,17.86-35.88,35.83c-2.54,25.92,10.94,54,29.36,75.75h6.52C398.22,128,416.93,102.88,414.16,75.18ZM378.23,95.12A19.65,19.65,0,1,1,398,75.45,19.62,19.62,0,0,1,378.23,95.12Z" style="opacity:0.2"></path><path d="M407.64,75.18c-1.8-18-14.19-35.83-35.93-35.83s-34.08,17.86-35.88,35.83c-2.71,27.7,15.94,52.84,35.88,75.75C391.7,128,410.41,102.88,407.64,75.18ZM371.71,95.12a19.65,19.65,0,1,1,19.72-19.67A19.62,19.62,0,0,1,371.71,95.12Z" style="fill:#F38102"></path></g></svg>
